<svg width="245" height="32" fill="none" xmlns="http://www.w3.org/2000/svg">
    <g clip-path="url(#clip0_27_587)" fill="white">
        <path d="M30.903 32h-2.031l.048-.096L43.96 0h2.032v.048L61.08 32h-2.032v-.048l-3.917-8.35H34.87L30.903 32zm23.359-10.232L44.976 2.124 35.74 21.768h18.523zM96.385 0h1.837v32h-2.708L67.513 1.93V32h-1.838V0h2.563l28.147 30.262V0zM119.743 0h15.138v1.834h-15.138V32h-1.837V1.834h-15.137V0h16.974zM171.49 0v1.834h-30.226v13.273h14.267v1.786h-14.267v13.273h30.226V32h-32.063V0h32.063zM214.822 32h-2.031l.049-.096L227.928 0h2.032v.048L245.048 32h-2.031v-.048l-3.917-8.35h-20.264L214.822 32zm23.359-10.232l-9.237-19.644-9.237 19.644h18.474zM199.927 23.07c2.321-.723 4.401-2.22 5.852-4.15 1.547-2.075 2.369-4.489 2.369-7.095C208.148 5.309 202.829 0 196.3 0h-20.215v32h1.837v-8.398h18.426c.532 0 1.016-.049 1.548-.097L205.779 32h2.515l-8.367-8.93zm6.384-11.245c0 4.634-3.289 8.736-7.835 9.75-.097 0-.193.048-.242.048L178.793 1.834h17.555c5.465 0 9.963 4.489 9.963 9.991zm-10.059 9.943h-18.33V2.655l18.813 19.113h-.483zM20.215 0H0v32h1.838v-8.398h18.425c6.53 0 11.85-5.31 11.85-11.825C32.062 5.309 26.743 0 20.214 0zM1.838 21.768V2.655L20.65 21.719H1.838v.049zm20.263-.193L2.66 1.835h17.555c5.513 0 10.011 4.488 10.011 9.99 0 4.827-3.482 8.88-8.125 9.75z"/>
    </g>
    <defs>
        <clipPath id="clip0_27_587">
            <path fill="white" d="M0 0h245v32H0z"/>
        </clipPath>
    </defs>
</svg>
