<svg width="63" height="28" fill="none" xmlns="http://www.w3.org/2000/svg">
    <path d="M23.92.359l-8.248 19.646H10.29L6.231 4.325c-.246-.963-.46-1.318-1.209-1.725C3.798 1.936 1.777 1.315 0 .93l.12-.57h8.663c1.103 0 2.096.733 2.348 2.002l2.145 11.37L18.57.358h5.348zm7.274 0l-4.209 19.646h-5.09L26.102.36h5.091zm13.81 13.232c.021-5.184-7.18-5.472-7.133-7.789.018-.704.69-1.454 2.16-1.645.729-.094 2.741-.17 5.02.88l.892-4.169C44.72.426 43.144 0 41.182 0c-5.033 0-8.573 2.669-8.601 6.494-.033 2.829 2.528 4.405 4.455 5.348 1.984.962 2.65 1.58 2.64 2.44-.014 1.318-1.584 1.902-3.044 1.924-2.56.04-4.045-.691-5.229-1.242l-.924 4.307c1.191.545 3.386 1.018 5.66 1.043 5.35 0 8.85-2.639 8.865-6.723zm13.29 6.414H63L58.888.36h-4.343c-.98 0-1.803.567-2.168 1.44l-7.639 18.206h5.346l1.06-2.935h6.532l.617 2.935zm-5.683-6.96l2.68-7.378 1.54 7.377h-4.22zM37.71 25.413H35.64v1.922h2.314v.578h-3.011V22.58h2.892v.578h-2.195v1.685h2.069v.57zm1.313-3.117h.698v5.617h-.697v-5.617zm2.456 3.829c.016.942.61 1.33 1.315 1.33.5 0 .809-.088 1.063-.198l.126.498c-.246.11-.673.245-1.284.245-1.18 0-1.885-.783-1.885-1.938 0-1.155.68-2.058 1.798-2.058 1.26 0 1.585 1.092 1.585 1.797 0 .142-.008.245-.024.324H41.48zm2.044-.499c.008-.435-.182-1.123-.966-1.123-.713 0-1.015.64-1.07 1.123h2.036zm4.468 2.152A2.698 2.698 0 0146.89 28c-1.157 0-1.91-.783-1.91-1.954 0-1.179.808-2.041 2.06-2.041.412 0 .776.102.967.205l-.158.53a1.711 1.711 0 00-.809-.182c-.88 0-1.355.657-1.355 1.448 0 .886.57 1.432 1.331 1.432.397 0 .658-.095.856-.182l.12.522zm1.956-4.612v.918h.998v.53h-.998v2.064c0 .476.135.744.523.744.19 0 .301-.015.404-.047l.032.53a1.908 1.908 0 01-.618.095c-.325 0-.587-.11-.753-.293-.19-.213-.27-.553-.27-1.004v-2.09h-.594v-.53h.595v-.711l.681-.206zm1.972 2.112c0-.45-.008-.838-.032-1.194h.61l.032.759h.024c.174-.514.602-.839 1.07-.839.07 0 .126.008.19.016v.657c-.072-.016-.143-.016-.238-.016-.491 0-.84.364-.935.886a2.094 2.094 0 00-.024.325v2.041h-.697v-2.635zm6.18.689c0 1.416-.991 2.033-1.91 2.033-1.03 0-1.838-.76-1.838-1.97 0-1.274.847-2.025 1.901-2.025 1.102 0 1.847.799 1.847 1.962zm-3.035.04c0 .838.475 1.47 1.157 1.47.665 0 1.164-.624 1.164-1.487 0-.648-.325-1.464-1.149-1.464-.816 0-1.172.76-1.172 1.48zm4.103-.887c0-.403-.008-.72-.032-1.036h.618l.04.633h.016c.19-.357.634-.712 1.268-.712.53 0 1.354.316 1.354 1.629v2.279h-.697v-2.207c0-.617-.23-1.132-.887-1.132-.452 0-.809.325-.935.712a.986.986 0 00-.048.325v2.302h-.697V25.12z" fill="#5B5B5B"/>
</svg>
