<svg width="63" height="14" fill="none" xmlns="http://www.w3.org/2000/svg">
    <path d="M11.47 0H8.417A7.934 7.934 0 015.27 6.37l-1.205.914 4.682 6.453h3.847L8.28 7.797c2.04-2.05 3.19-4.82 3.19-7.797zM.56 0h3.12v13.737H.56V0zm12.936 0h2.944v13.737h-2.944V0zm28.762 3.974c-1.123 0-2.19.347-2.902 1.33V4.237h-2.793v9.5h2.834V8.752c0-1.44.958-2.147 2.108-2.147 1.232 0 1.944.748 1.944 2.133v5.013h2.806V7.699c0-2.215-1.738-3.725-3.997-3.725zm-16.92.263v.61a4.85 4.85 0 00-2.793-.873c-2.738 0-4.956 2.244-4.956 5.013 0 2.77 2.218 5.013 4.956 5.013a4.85 4.85 0 002.793-.872v.609h2.806v-9.5h-2.806zm-2.56 7.187c-1.41 0-2.546-1.094-2.546-2.437 0-1.343 1.136-2.437 2.546-2.437s2.546 1.094 2.546 2.437c0 1.343-1.136 2.437-2.546 2.437zm9.72-5.954V4.237h-2.875v9.5h2.888V9.306c0-1.496 1.602-2.299 2.71-2.299h.028v-2.77c-1.136 0-2.19.499-2.752 1.233zm22.491-1.233v.61a4.85 4.85 0 00-2.792-.873c-2.738 0-4.956 2.244-4.956 5.013 0 2.77 2.218 5.013 4.956 5.013a4.85 4.85 0 002.792-.872v.609h2.807v-9.5h-2.807zm-2.56 7.187c-1.41 0-2.546-1.094-2.546-2.437 0-1.343 1.136-2.437 2.546-2.437s2.547 1.094 2.547 2.437c.013 1.343-1.137 2.437-2.547 2.437zm7.543-6.91c0-.138-.096-.221-.246-.221h-.26v.72h.123V4.75h.137l.11.263h.136l-.123-.29a.215.215 0 00.123-.209zm-.246.111h-.137v-.221h.137c.082 0 .123.041.123.11 0 .07-.027.111-.123.111z" fill="#5B5B5B"/>
    <path d="M59.685 3.988c-.37 0-.67.305-.67.679.013.374.3.678.67.678.37 0 .67-.304.67-.678a.676.676 0 00-.67-.679zm0 1.233a.54.54 0 01-.534-.554.55.55 0 01.534-.554.54.54 0 01.534.554.55.55 0 01-.534.554zm1.109 5.151a1.78 1.78 0 00-1.766 1.786 1.78 1.78 0 001.766 1.787 1.78 1.78 0 001.766-1.787c0-.997-.794-1.786-1.766-1.786z" fill="#5B5B5B"/>
</svg>
