<svg width="64" height="12" fill="none" xmlns="http://www.w3.org/2000/svg">
    <path d="M50.591 2.786l-4.305 9.09h-1.784l1.608-3.395-2.527-5.695h1.832L47.039 6.6l1.774-3.815h1.778zM34.208 6.014c0-1.044-.77-1.848-1.715-1.848-.945 0-1.715.777-1.715 1.848 0 1.06.77 1.847 1.715 1.847.945 0 1.715-.804 1.715-1.847zm-4.996 5.863V2.786h1.55v.837a2.484 2.484 0 011.991-.957c1.704 0 3.042 1.435 3.042 3.331 0 1.897-1.364 3.342-3.079 3.342-.796 0-1.45-.32-1.906-.864v3.396h-1.598v.006zM41.39 6.014c0-1.087-.769-1.848-1.714-1.848s-1.715.777-1.715 1.848c0 1.06.77 1.847 1.715 1.847.945 0 1.715-.766 1.715-1.847zm.011 3.227v-.836a2.502 2.502 0 01-1.99.94c-1.731 0-3.043-1.419-3.043-3.331 0-1.897 1.365-3.342 3.08-3.342A2.5 2.5 0 0141.4 3.6v-.815h1.55V9.24h-1.55zM26.414 3.416s.393-.75 1.365-.75c.414 0 .68.147.68.147V4.46s-.585-.37-1.121-.294c-.536.076-.876.576-.876 1.25V9.24h-1.603V2.786h1.55v.63h.005zM62.632 2.422l-3.7-2.168C57.7-.47 56.16.438 56.16 1.894v.245c0 .136.07.261.186.326l.866.506c.238.14.536-.038.536-.321v-.581c0-.288.302-.468.547-.326l1.698 1 1.694.994a.377.377 0 010 .646l-1.694.995-1.699 1a.366.366 0 01-.546-.326v-.288c0-1.457-1.54-2.37-2.772-1.641l-3.7 2.168c-1.237.728-1.237 2.56 0 3.287l3.7 2.168c1.232.723 2.772-.184 2.772-1.64V9.86a.37.37 0 00-.186-.326l-.865-.506c-.24-.14-.537.039-.537.321v.582a.366.366 0 01-.546.326l-1.7-1-1.693-.995a.377.377 0 010-.646l1.694-.995 1.699-1a.366.366 0 01.546.326v.288c0 1.457 1.54 2.37 2.772 1.641l3.7-2.168c1.237-.733 1.237-2.559 0-3.287zM7.022 6.848c-.34 1.484-1.587 2.506-3.2 2.506C1.96 9.354.56 7.919.56 6.022c0-1.896 1.422-3.342 3.289-3.342 1.576 0 2.807 1.022 3.162 2.478h-1.64c-.291-.581-.87-.967-1.511-.967-.934 0-1.714.788-1.714 1.831 0 1.044.78 1.832 1.714 1.832a1.65 1.65 0 001.522-1.006h1.64zM7.759 9.25V.143h1.586v9.109H7.76zM11.733 6.452c.111.956.78 1.494 1.623 1.494.669 0 1.183-.32 1.486-.837h1.623c-.377 1.37-1.576 2.245-3.151 2.245-1.905 0-3.236-1.37-3.236-3.315 0-1.946 1.41-3.353 3.273-3.353 1.878 0 3.236 1.418 3.236 3.353a2.1 2.1 0 01-.037.413h-4.817zm3.162-1.011c-.112-.837-.78-1.342-1.56-1.342s-1.422.489-1.586 1.342h3.146zM22.253 9.25v-.836a2.492 2.492 0 01-1.99.94c-1.724 0-3.034-1.419-3.034-3.332 0-1.896 1.358-3.342 3.072-3.342a2.48 2.48 0 011.952.93v-.816h1.55v6.451h-1.55v.006zm-.016-3.228c0-1.081-.769-1.847-1.713-1.847-.945 0-1.714.771-1.714 1.847 0 1.06.77 1.848 1.714 1.848s1.713-.76 1.713-1.848z" fill="#5B5B5B"/>
</svg>
