<svg width="39" height="29" fill="none" xmlns="http://www.w3.org/2000/svg">
    <path d="M6.91 28.936v-1.924c0-.736-.457-1.218-1.243-1.218-.393 0-.82.127-1.115.545-.228-.351-.557-.545-1.049-.545-.328 0-.656.097-.916.448v-.385H1.9v3.08h.687v-1.7c0-.546.294-.804.752-.804s.687.287.687.803v1.7h.687v-1.7c0-.546.328-.803.752-.803.457 0 .686.287.686.803v1.7h.76zm10.19-3.079h-1.115v-.93h-.687v.93h-.622v.61h.622v1.412c0 .706.294 1.121 1.08 1.121.294 0 .622-.097.851-.224l-.198-.58c-.199.128-.428.161-.592.161-.328 0-.458-.194-.458-.512v-1.379h1.115v-.609h.003zm5.83-.067a.935.935 0 00-.82.448v-.385h-.687v3.08h.687v-1.734c0-.512.229-.804.656-.804.13 0 .294.034.428.064l.198-.643c-.137-.026-.332-.026-.462-.026zm-8.81.321c-.329-.224-.787-.321-1.28-.321-.785 0-1.308.385-1.308.994 0 .512.393.803 1.08.897l.328.034c.359.063.557.16.557.32 0 .225-.263.386-.721.386-.458 0-.82-.16-1.05-.322l-.328.512c.36.258.851.385 1.344.385.915 0 1.442-.418 1.442-.994 0-.545-.427-.833-1.08-.93l-.328-.034c-.294-.034-.523-.097-.523-.288 0-.224.23-.351.592-.351.393 0 .786.16.984.258l.29-.546zm18.274-.321a.935.935 0 00-.82.448v-.385h-.687v3.08h.687v-1.734c0-.512.229-.804.656-.804.13 0 .294.034.427.064l.199-.636c-.134-.033-.328-.033-.462-.033zm-8.777 1.607c0 .93.657 1.603 1.672 1.603.458 0 .786-.097 1.114-.351l-.328-.546a1.33 1.33 0 01-.82.288c-.558 0-.95-.385-.95-.994 0-.58.392-.964.95-.994.293 0 .556.097.82.288l.328-.546c-.328-.258-.656-.351-1.114-.351-1.015-.004-1.672.672-1.672 1.603zm6.354 0v-1.54h-.687v.385c-.229-.288-.557-.448-.985-.448-.885 0-1.572.672-1.572 1.603 0 .93.687 1.603 1.572 1.603.459 0 .787-.16.985-.448v.384h.687v-1.54zm-2.522 0c0-.546.358-.994.95-.994.557 0 .95.418.95.994 0 .546-.393.994-.95.994-.588-.034-.95-.452-.95-.994zm-8.22-1.607c-.916 0-1.572.643-1.572 1.603 0 .964.656 1.603 1.606 1.603.458 0 .916-.127 1.279-.418l-.329-.482a1.58 1.58 0 01-.915.321c-.428 0-.851-.194-.95-.736h2.323v-.258c.03-.99-.56-1.633-1.442-1.633zm0 .58c.427 0 .721.257.786.735h-1.637c.065-.415.359-.736.85-.736zm17.065 1.027v-2.758h-.687v1.603c-.229-.288-.557-.448-.984-.448-.886 0-1.572.672-1.572 1.603 0 .93.686 1.603 1.572 1.603.458 0 .786-.16.984-.448v.384h.687v-1.54zm-2.522 0c0-.546.358-.994.95-.994.557 0 .95.418.95.994 0 .546-.393.994-.95.994-.592-.034-.95-.452-.95-.994zm-22.996 0v-1.54h-.687v.385c-.228-.288-.557-.448-.984-.448-.885 0-1.572.672-1.572 1.603 0 .93.687 1.603 1.572 1.603.458 0 .786-.16.984-.448v.384h.687v-1.54zm-2.553 0c0-.546.36-.994.95-.994.558 0 .95.418.95.994 0 .546-.392.994-.95.994-.59-.034-.95-.452-.95-.994z" fill="#5B5B5B"/>
    <path d="M24.209 2.47H13.89v18.155H24.21V2.47z" fill="#242424"/>
    <path d="M14.577 11.548c0-3.689 1.77-6.963 4.488-9.078C17.065.93 14.543 0 11.79 0 5.274 0 0 5.165 0 11.548s5.274 11.547 11.791 11.547c2.752 0 5.274-.93 7.274-2.47a11.44 11.44 0 01-4.488-9.077z" fill="#5B5B5B"/>
    <path d="M38.13 11.548c0 6.383-5.274 11.547-11.792 11.547-2.751 0-5.274-.93-7.273-2.47 2.751-2.119 4.487-5.389 4.487-9.077 0-3.689-1.77-6.963-4.487-9.078A11.866 11.866 0 0126.335 0c6.52 0 11.795 5.198 11.795 11.548z" fill="#5B5B5B"/>
</svg>
