<svg width="59" height="16" fill="none" xmlns="http://www.w3.org/2000/svg">
    <path d="M10.955 2.607a2.38 2.38 0 00-.863-.949 3.995 3.995 0 00-1.373-.514c-.534-.098-1.15-.143-1.865-.15L3.555.997a.83.83 0 00-.759.614l-2.22 9.852c-.08.333.135.612.478.612h1.58c.343 0 .682-.271.758-.612l.542-2.392a.813.813 0 01.757-.611h.452c1.932-.003 3.428-.405 4.503-1.21 1.08-.807 1.613-1.873 1.613-3.193-.001-.578-.095-1.064-.304-1.45zM7.548 5.825c-.477.357-1.141.535-1.997.535h-.387c-.344 0-.555-.277-.48-.615l.475-2.091a.803.803 0 01.753-.611l.518-.004c.604 0 1.065.107 1.373.313.305.204.458.53.456.96.01.654-.236 1.157-.711 1.513zM55.99 1.766l-.1.03-.132.02-.162-.027-.083-.082-.038-.129-.002-.193V.668H56V.447h-.528V0h-.261v.447h-.178v.221h.178v.834l.121.413.36.131.15-.013.16-.031v-.236h-.014zM58.439.56l-.377-.158-.279.058-.283.194-.164-.186-.267-.065-.257.058-.243.16V.446h-.256v1.565h.255V.843l.215-.136.214-.054.175.032.086.09.038.15.013.194v.894h.257V1.012L57.56.929l-.005-.077.219-.141.216-.056.17.032.091.09.033.152.017.19v.895h.258V.998L58.439.56zM18.573 4.015c-.596-.343-1.537-.514-2.824-.514-.636 0-1.27.05-1.91.151-.473.074-.52.088-.81.153-.601.133-.696.744-.696.744l-.193.81c-.11.518.183.498.305.454.262-.08.408-.161.945-.283.512-.119 1.051-.208 1.48-.202.631 0 1.114.068 1.436.206.318.141.477.383.477.732l-.028.227-.228.143c-.896.058-1.544.142-2.33.258-.768.11-1.442.3-2.003.562-.602.27-1.048.632-1.36 1.093-.301.463-.452 1.025-.452 1.684 0 .62.219 1.132.643 1.528.427.39.99.58 1.665.58.427-.003.757-.037.992-.094l.765-.269.648-.365.596-.401.008.011-.06.258-.003.01v.003c-.065.314.122.572.422.603l.006.007h1.467l.02-.01a.822.822 0 00.68-.602l1.152-5.08.06-.415.027-.388c.005-.72-.3-1.253-.897-1.594zm-2.547 5.712l-.247.33-.62.328c-.293.12-.57.182-.827.182-.389 0-.694-.058-.9-.175l-.305-.604c0-.327.074-.586.232-.785l.67-.465a5.7 5.7 0 011.04-.239 33.936 33.936 0 011.168-.131l.11.196c-.022.11-.225.974-.321 1.363zM47.267 4.022c-.6-.343-1.54-.515-2.823-.515-.636 0-1.271.05-1.91.155-.474.07-.521.085-.813.149-.6.132-.693.745-.693.745l-.193.81c-.108.517.177.493.31.453.264-.08.405-.158.937-.285.51-.117 1.054-.204 1.483-.201.63 0 1.113.069 1.434.207.32.14.476.385.476.73l-.024.227-.226.146a24.6 24.6 0 00-2.332.256c-.766.11-1.443.3-2.004.562-.6.27-1.052.633-1.36 1.095-.305.463-.454 1.023-.454 1.677 0 .624.217 1.137.647 1.53.43.389.987.584 1.662.584.424-.005.754-.033.99-.095l.763-.265.654-.366.591-.406.01.013-.054.26-.005.005.002.005c-.072.314.116.574.42.602l.002.006H46.223l.024-.008a.814.814 0 00.672-.607l1.155-5.074.061-.416.034-.39c0-.717-.3-1.248-.902-1.59zm-2.542 5.712l-.257.334-.615.325c-.293.12-.57.182-.823.182-.401 0-.698-.059-.898-.176l-.309-.601c0-.329.075-.586.226-.788.153-.192.386-.349.676-.464a5.775 5.775 0 011.04-.238c.36-.045 1.07-.13 1.162-.132l.112.196c-.016.111-.22.97-.314 1.362zM39.644 2.643a2.473 2.473 0 00-.87-.952 3.833 3.833 0 00-1.373-.514 10.661 10.661 0 00-1.858-.147l-3.303.002a.824.824 0 00-.754.612L29.264 11.5c-.08.334.14.61.477.61l1.582-.002c.336.003.68-.272.76-.61l.534-2.392c.079-.333.418-.613.76-.611h.452c1.934 0 3.433-.406 4.512-1.209 1.067-.813 1.607-1.876 1.607-3.197-.006-.576-.104-1.063-.304-1.446zm-3.407 3.223c-.476.35-1.141.528-1.993.528h-.393c-.34.003-.56-.278-.484-.613l.48-2.089c.07-.334.412-.614.754-.61l.512-.004c.607.003 1.063.105 1.374.312.31.206.455.53.459.959.003.654-.235 1.158-.709 1.517zM53.19 1.722c.072-.336-.135-.61-.474-.605H51.3c-.29 0-.552.22-.68.49l-.078.124-.07.319-1.979 9.162-.064.281.002.007c-.065.301.116.529.397.572l.024.034h1.47c.287 0 .558-.223.68-.497l.077-.117 2.114-9.768-.004-.002zM29.308 3.624c-.374.005-1.894 0-1.894 0-.34 0-.778.28-.994.615 0 0-2.262 3.956-2.482 4.353l-.262-.003-.704-4.323c-.079-.34-.427-.631-.86-.631l-1.416.002c-.34 0-.55.277-.473.615 0 0 1.075 6.231 1.29 7.698.1.81-.013.954-.013.954l-1.399 2.483c-.207.338-.095.613.244.613l1.636-.002c.34 0 .788-.273.99-.612l6.294-10.848s.606-.927.043-.914z" fill="#5B5B5B"/>
</svg>
