<svg width="86" height="28" fill="none" xmlns="http://www.w3.org/2000/svg">
    <path d="M32.654.492l-11.258 27.08H14.05L8.513 5.963C8.172 4.63 7.88 4.146 6.859 3.58 5.185 2.667 2.43 1.81 0 1.279L.17.493h11.822c1.507 0 2.863 1.013 3.204 2.761l2.927 15.673L25.353.493h7.3zm28.78 18.235c.033-7.143-9.804-7.532-9.734-10.728.02-.975.936-2.008 2.945-2.268.997-.134 3.742-.232 6.853 1.208l1.22-5.74C61.044.587 58.892 0 56.218 0 49.35 0 44.515 3.683 44.474 8.952c-.045 3.896 3.45 6.07 6.086 7.368 2.706 1.328 3.611 2.176 3.602 3.367-.018 1.817-2.16 2.612-4.157 2.647-3.495.055-5.522-.951-7.14-1.711l-1.259 5.937c1.621.75 4.623 1.402 7.73 1.44 7.3 0 12.075-3.644 12.098-9.273zm18.138 8.845H86L80.39.492h-5.934c-1.333 0-2.457.785-2.958 1.986L61.077 27.572h7.294l1.448-4.044h8.916l.837 4.044zm-7.755-9.595l3.66-10.167 2.105 10.168h-5.765zM42.584.492l-5.75 27.08h-6.95L35.635.492h6.95z" fill="#5B5B5B"/>
</svg>
