<svg width="66" height="18" fill="none" xmlns="http://www.w3.org/2000/svg">
    <path d="M13.015 17.003c4.603.022 8.805-3.79 8.805-8.428 0-5.071-4.202-8.577-8.805-8.575H9.053C4.394-.002.56 3.505.56 8.575c0 4.639 3.834 8.45 8.493 8.428h3.962z" fill="#5B5B5B"/>
    <path d="M9.072.703C4.815.704 1.365 4.187 1.364 8.486c.001 4.299 3.45 7.781 7.708 7.783 4.258-.002 7.708-3.484 7.708-7.783S13.33.704 9.072.703zM4.186 8.486a4.94 4.94 0 013.136-4.604v9.207a4.937 4.937 0 01-3.136-4.603zm6.634 4.605V3.882a4.937 4.937 0 013.138 4.604 4.939 4.939 0 01-3.138 4.605z" fill="white"/>
    <path d="M24.52 3.658c0-.804-.416-.751-.814-.76v-.232c.345.017.699.017 1.045.017.372 0 .877-.017 1.532-.017 2.294 0 3.543 1.546 3.543 3.13 0 .885-.514 3.111-3.65 3.111-.45 0-.867-.017-1.284-.017-.398 0-.788.008-1.186.017v-.232c.53-.054.788-.072.814-.68V3.658zm.868 4.194c0 .689.487.77.921.77 1.914 0 2.542-1.459 2.542-2.791 0-1.672-1.063-2.879-2.772-2.879-.364 0-.53.027-.691.036v4.864zM30.136 8.675h.168c.248 0 .425 0 .425-.296V5.956c0-.393-.133-.447-.46-.625v-.143c.416-.127.912-.295.947-.322a.313.313 0 01.16-.045c.044 0 .062.054.062.125V8.38c0 .296.195.296.443.296h.15v.233c-.301 0-.611-.018-.93-.018a34.8 34.8 0 00-.965.018v-.233zm.948-5.231c-.23 0-.434-.215-.434-.447 0-.224.213-.43.434-.43.23 0 .434.188.434.43a.445.445 0 01-.434.447zM32.873 6.01c0-.33-.098-.42-.514-.59v-.17c.38-.125.743-.241 1.169-.43.026 0 .052.019.052.09v.582c.506-.367.94-.671 1.534-.671.752 0 1.018.554 1.018 1.251V8.38c0 .296.195.296.443.296h.16v.233c-.311 0-.621-.018-.94-.018-.319 0-.638.009-.956.018v-.233h.159c.249 0 .425 0 .425-.296V6.064c0-.51-.309-.76-.814-.76-.283 0-.735.232-1.029.43v2.645c0 .296.196.296.445.296h.159v.233c-.31 0-.62-.018-.94-.018-.318 0-.638.009-.956.018v-.233h.16c.248 0 .425 0 .425-.296V6.01zM37.408 6.44c-.019.08-.019.214 0 .518.052.85.594 1.547 1.301 1.547.488 0 .87-.268 1.197-.599l.123.126c-.408.545-.912 1.01-1.638 1.01-1.409 0-1.692-1.378-1.692-1.95 0-1.753 1.169-2.271 1.788-2.271.718 0 1.49.455 1.498 1.403 0 .055 0 .108-.009.162l-.08.054h-2.488zm1.568-.287c.22 0 .247-.116.247-.223 0-.456-.275-.823-.77-.823-.54 0-.913.402-1.019 1.046h1.542zM40.189 8.675h.239c.247 0 .424 0 .424-.296V5.867c0-.277-.327-.33-.46-.402V5.33c.646-.278 1.001-.51 1.082-.51.052 0 .078.027.078.116v.805h.019c.22-.349.593-.921 1.133-.921.222 0 .505.151.505.474 0 .241-.168.456-.416.456-.276 0-.276-.215-.585-.215-.15 0-.646.206-.646.743v2.1c0 .296.176.296.425.296h.495v.233c-.487-.01-.858-.018-1.24-.018-.362 0-.734.009-1.053.018v-.233zM43.599 7.664c.115.59.469 1.091 1.116 1.091.521 0 .716-.321.716-.634 0-1.056-1.93-.716-1.93-2.155 0-.501.4-1.145 1.373-1.145.283 0 .664.08 1.009.26l.063.91h-.204c-.089-.562-.398-.884-.966-.884-.354 0-.69.206-.69.59 0 1.047 2.054.724 2.054 2.128 0 .59-.47 1.217-1.523 1.217-.355 0-.77-.126-1.08-.304l-.098-1.029.16-.045zM54.138 4.284h-.221c-.169-1.046-.904-1.466-1.895-1.466-1.02 0-2.499.688-2.499 2.834 0 1.807 1.276 3.104 2.64 3.104.877 0 1.603-.608 1.78-1.548l.204.054-.203 1.305c-.372.233-1.373.475-1.959.475-2.072 0-3.382-1.35-3.382-3.363 0-1.833 1.62-3.148 3.356-3.148.718 0 1.408.233 2.09.475l.089 1.278zM54.457 8.675h.168c.248 0 .426 0 .426-.296V3.4c0-.581-.133-.6-.47-.697v-.143c.354-.116.726-.278.913-.385.096-.054.168-.099.194-.099.054 0 .072.054.072.126v6.178c0 .296.194.296.442.296h.15v.233c-.3 0-.61-.018-.93-.018-.318 0-.637.009-.965.018v-.233zM60.144 8.415c0 .162.097.17.247.17.107 0 .24-.008.355-.008v.188c-.381.035-1.108.223-1.276.277l-.044-.027V8.29c-.531.438-.94.75-1.569.75-.478 0-.974-.312-.974-1.063v-2.29c0-.232-.035-.456-.53-.5v-.17c.32-.01 1.026-.063 1.142-.063.098 0 .098.063.098.26V7.52c0 .269 0 1.037.77 1.037.301 0 .7-.232 1.071-.544V5.607c0-.178-.424-.276-.743-.366v-.16c.796-.055 1.293-.126 1.381-.126.072 0 .072.062.072.161v3.3zM61.906 5.465c.354-.304.832-.644 1.32-.644 1.028 0 1.647.904 1.647 1.878 0 1.171-.85 2.343-2.117 2.343-.655 0-1-.215-1.231-.313l-.265.205-.186-.098c.079-.527.124-1.046.124-1.592V3.4c0-.581-.134-.6-.47-.697v-.143c.355-.116.726-.278.912-.385.098-.054.168-.099.196-.099.053 0 .07.054.07.126v3.264zm0 2.432c0 .34.319.913.912.913.948 0 1.346-.94 1.346-1.736 0-.966-.725-1.77-1.416-1.77-.329 0-.603.215-.842.42v2.173zM23.696 14.107h.067c.174 0 .357-.024.357-.277v-2.55c0-.253-.183-.277-.357-.277h-.067v-.146c.188 0 .477.019.714.019.24 0 .53-.02.756-.02v.147h-.068c-.173 0-.356.024-.356.277v2.55c0 .253.183.277.356.277h.068v.146c-.232 0-.521-.019-.762-.019-.236 0-.52.02-.708.02v-.147z" fill="#5B5B5B"/>
    <path d="M25.166 14.274c-.233 0-.522-.02-.762-.02-.235 0-.519.02-.708.02h-.02V14.086H23.762c.175-.004.334-.019.336-.256v-2.55c-.002-.237-.16-.253-.336-.256h-.088v-.189h.02c.19 0 .48.02.715.02.24 0 .528-.02.756-.02h.021v.189H25.098c-.174.003-.334.019-.335.257v2.549c0 .237.16.252.335.256h.09v.188h-.022zm-.02-.042v-.103h-.048c-.172 0-.377-.03-.378-.3V11.28c.001-.268.206-.299.378-.299h.047v-.103c-.222 0-.501.019-.735.019-.23 0-.506-.018-.693-.019v.103h.046c.172 0 .378.03.378.3v2.549c0 .268-.206.299-.378.299h-.046v.103c.187-.002.459-.02.687-.02.235 0 .514.019.741.02zM28.477 13.294l.01-.01V11.46c0-.4-.276-.457-.42-.457h-.106v-.146c.227 0 .448.019.674.019.198 0 .396-.02.594-.02v.147h-.073c-.203 0-.429.039-.429.618v2.214c0 .17.005.34.029.49h-.184l-2.481-2.792v2.005c0 .423.081.569.453.569h.081v.146c-.207 0-.413-.019-.621-.019-.216 0-.438.02-.655.02v-.147h.067c.333 0 .434-.228.434-.617v-2.05a.434.434 0 00-.439-.437h-.062v-.146c.183 0 .37.02.553.02.145 0 .285-.02.43-.02l2.145 2.437z" fill="#5B5B5B"/>
    <path d="M28.756 14.347l-.2-.007-2.445-2.752v1.95c.006.423.07.543.433.548h.103v.188h-.021c-.21 0-.417-.02-.622-.02-.216 0-.437.02-.656.02h-.02v-.188H25.415c.319-.002.41-.209.413-.596v-2.05a.415.415 0 00-.418-.416h-.084v-.188h.021c.184 0 .373.018.554.018.143 0 .283-.018.445-.011l2.118 2.407v-1.79c-.002-.387-.258-.433-.398-.437h-.128v-.187h.021c.228 0 .45.018.675.018.196 0 .394-.018.593-.018h.021v.188h-.093c-.199.005-.403.023-.408.597v2.214c0 .17.005.34.028.487l.005.025h-.025zm-.183-.043h.159a3.278 3.278 0 01-.026-.47v-2.213c0-.584.243-.64.45-.64h.051v-.103c-.19.001-.38.019-.572.019-.22 0-.435-.018-.653-.019v.103h.085c.148 0 .44.067.44.48l-.006 1.838-.01.01-.016.016-2.144-2.447c-.142 0-.282.019-.429.019-.177 0-.358-.018-.532-.019l-.001.103h.042c.227 0 .459.175.459.46v2.048c0 .39-.107.638-.454.64l-.046-.002v.105c.208-.002.423-.02.634-.02.201 0 .401.018.6.02v-.103h-.06c-.38-.002-.474-.168-.474-.591v-2.06l2.503 2.826zm-.096-1.01l.015-.014-.015.014zm-.012-.01v-.001l-.003-.004.003.005zM29.95 11.1c-.362 0-.376.088-.448.442h-.144c.018-.136.043-.271.057-.413a2.92 2.92 0 00.029-.413h.116c.039.146.16.14.29.14h2.486c.13 0 .25-.004.26-.15l.115.02c-.018.13-.038.262-.052.394-.01.131-.01.263-.01.393l-.144.055c-.01-.18-.034-.468-.357-.468h-.79v2.589c0 .375.169.418.4.418h.091v.146c-.188 0-.526-.019-.785-.019-.29 0-.627.02-.815.02v-.147h.092c.265 0 .4-.024.4-.408v-2.6h-.791z" fill="#5B5B5B"/>
    <path d="M31.85 14.274c-.19 0-.527-.02-.786-.02-.289 0-.626.02-.815.02h-.02v-.188h.112c.265-.007.372-.01.378-.387V11.12h-.769v-.043h.811v2.62c0 .391-.156.43-.42.43h-.071v.103c.19 0 .514-.018.794-.018.251 0 .573.017.764.018v-.102h-.07c-.234 0-.421-.058-.421-.44v-2.61h.811c.324 0 .366.278.377.459l.104-.04c0-.126 0-.253.009-.381.014-.126.032-.25.05-.374l-.074-.012c-.022.141-.158.148-.279.147h-2.51c-.114 0-.238-.005-.28-.141h-.08c0 .134-.01.265-.029.394-.014.134-.036.263-.054.391h.103c.064-.339.105-.449.465-.444v.043c-.356.006-.349.067-.427.427l-.004.016h-.186l.003-.025c.02-.136.044-.272.058-.414.02-.135.03-.27.03-.41v-.02h.152l.004.015c.033.122.122.123.245.125h2.51c.134-.002.232-.004.24-.131l.002-.023.022.005.136.021-.003.022c-.02.13-.038.261-.052.392-.01.13-.01.261-.01.392v.015l-.013.006-.171.063-.002-.029c-.012-.183-.031-.447-.336-.447h-.769v2.568c.004.367.149.392.378.397h.113v.188h-.02zM32.865 14.107h.068c.173 0 .357-.024.357-.277v-2.55c0-.253-.184-.277-.357-.277h-.068v-.146c.294 0 .796.019 1.2.019.406 0 .906-.02 1.233-.02a8.35 8.35 0 00.011.745l-.145.04c-.023-.317-.081-.57-.587-.57h-.67v1.275h.573c.29 0 .352-.165.38-.429h.145a11.681 11.681 0 000 1.125l-.144.029c-.029-.292-.043-.482-.376-.482h-.578v1.133c0 .317.279.317.587.317.579 0 .834-.04.979-.593l.135.033c-.064.259-.121.516-.164.774-.309 0-.863-.019-1.296-.019-.435 0-1.008.02-1.283.02v-.147z" fill="#5B5B5B"/>
    <path d="M35.444 14.274c-.31 0-.864-.02-1.297-.02-.434 0-1.006.02-1.282.02h-.02V14.086H32.933c.175-.003.333-.018.336-.256v-2.55c-.003-.237-.161-.253-.336-.256h-.088v-.188h.02c.294 0 .796.018 1.2.018.405 0 .905-.018 1.233-.018h.022l-.001.021a7.523 7.523 0 00.01.742v.018l-.016.005-.169.044-.001-.024c-.028-.316-.07-.545-.566-.55h-.65v1.232h.553c.277-.003.327-.146.36-.409l.002-.019h.184v.022a11.044 11.044 0 000 1.123v.017l-.017.004-.167.034-.002-.023c-.033-.297-.036-.46-.356-.463h-.557v1.112c0 .296.253.294.567.296.58-.004.813-.032.959-.578l.004-.02.02.004.155.04-.005.02c-.062.258-.12.515-.163.773l-.004.017h-.016zm-.018-.043c.042-.245.097-.491.156-.736l-.095-.024c-.145.544-.424.593-.993.589-.303 0-.607 0-.609-.338v-1.154h.6c.336-.004.37.201.394.478l.104-.022a10.276 10.276 0 010-1.086h-.104c-.027.254-.105.432-.399.428h-.595V11.05h.692c.5-.004.584.257.605.563l.104-.028a8.254 8.254 0 01-.009-.707c-.328.001-.815.019-1.212.019-.396 0-.884-.018-1.179-.019v.103h.047c.172 0 .377.03.378.3v2.549c-.001.268-.206.297-.378.299h-.047v.102c.281 0 .838-.018 1.261-.018.425 0 .968.018 1.279.018zM36.258 11.372c0-.355-.193-.37-.343-.37h-.086v-.146c.154 0 .453.02.747.02.289 0 .52-.02.776-.02.606 0 1.147.166 1.147.858 0 .436-.29.704-.67.856l.824 1.245c.135.206.23.263.467.292v.146c-.159 0-.313-.019-.472-.019-.15 0-.304.02-.453.02a13.62 13.62 0 01-1.003-1.578h-.317v1.042c0 .375.173.389.395.389h.086v.146c-.275 0-.553-.019-.828-.019-.232 0-.459.02-.7.02v-.147h.087c.18 0 .343-.082.343-.263v-2.472zm.617 1.13h.235c.483 0 .742-.186.742-.76 0-.433-.274-.71-.703-.71-.145 0-.207.015-.274.02v1.45z" fill="#5B5B5B"/>
    <path d="M39.12 14.274c-.161 0-.314-.02-.473-.02-.147 0-.3.02-.469.012-.37-.49-.686-1.012-.998-1.568h-.284v1.02c.005.365.15.362.373.368h.108v.188h-.021c-.276 0-.555-.02-.829-.02-.23 0-.456.02-.698.02h-.021v-.188h.107c.174-.001.32-.078.321-.242v-2.472c-.003-.345-.17-.343-.32-.348h-.108v-.189h.02c.157 0 .454.02.748.02.287 0 .52-.02.776-.02.607.002 1.166.171 1.168.877 0 .44-.288.714-.66.867l.81 1.224c.135.202.219.252.453.283l.018.002v.186h-.02zm-2.245-1.619h.33l.005.011c.314.56.63 1.084.985 1.566.147 0 .302-.02.452-.02.154 0 .303.017.453.02v-.107c-.227-.028-.333-.096-.464-.298l-.839-1.267.024-.01c.377-.15.656-.41.656-.838 0-.675-.52-.831-1.125-.834-.255 0-.486.02-.776.02-.283 0-.57-.019-.727-.02v.103h.066c.15 0 .363.026.363.391v2.472c0 .196-.181.285-.363.285h-.066v.103c.232-.001.452-.02.678-.02.27 0 .541.019.808.02v-.103h-.066c-.22 0-.416-.028-.416-.412v-1.062h.021zm0-.133h-.022v-1.49l.019-.002c.066-.005.13-.019.277-.019.439 0 .724.288.725.732-.002.58-.278.778-.764.779h-.235zm.235-.042c.478-.004.718-.171.723-.737-.003-.425-.265-.689-.684-.69-.13 0-.192.012-.253.017v1.41h.214zM42.392 13.294l.009-.01V11.46c0-.4-.274-.457-.419-.457h-.105v-.146c.226 0 .447.019.674.019.198 0 .395-.02.594-.02v.147h-.073c-.202 0-.429.039-.429.618v2.214c0 .17.005.34.028.49h-.182l-2.482-2.792v2.005c0 .423.082.569.453.569h.082v.146c-.207 0-.415-.019-.622-.019-.217 0-.439.02-.655.02v-.147h.066c.333 0 .435-.228.435-.617v-2.05a.434.434 0 00-.438-.437h-.063v-.146c.182 0 .371.02.554.02.143 0 .284-.02.428-.02l2.145 2.437z" fill="#5B5B5B"/>
    <path d="M42.672 14.347l-.199-.007-2.446-2.752v1.95c.006.423.07.543.433.548h.102v.188h-.021c-.209 0-.415-.02-.622-.02-.215 0-.438.02-.654.02h-.022v-.188h.088c.319-.002.41-.209.413-.598V11.44c0-.259-.21-.416-.417-.417h-.084v-.188h.022c.183 0 .372.02.554.02.141 0 .281-.02.443-.013l2.118 2.408v-1.79c-.001-.387-.258-.435-.398-.437h-.127v-.188h.021c.228 0 .45.02.675.02.197 0 .394-.02.593-.02h.02v.188h-.092c-.199.006-.404.024-.409.598v2.214c0 .17.005.338.029.488l.003.024h-.023zm-.183-.043h.158a3.367 3.367 0 01-.026-.47v-2.213c0-.585.244-.638.451-.64h.05v-.103c-.189.001-.38.019-.571.019-.221 0-.436-.018-.654-.019v.103h.085c.149.002.44.067.44.479l-.006 1.84-.01.01-.014.015-2.145-2.447c-.143 0-.283.019-.428.019-.179 0-.359-.018-.534-.019v.103h.042a.457.457 0 01.459.46v2.047c0 .39-.109.64-.455.64h-.046v.103c.208 0 .423-.018.634-.018.203 0 .403.017.602.018v-.102h-.061c-.38 0-.474-.168-.475-.592V11.48l2.504 2.825zm-.097-1.01l.015-.014-.015.014zm-.012-.01v-.001l-.004-.004.004.006zM43.92 13.557c-.05.165-.107.293-.107.38 0 .146.203.17.36.17h.055v.146c-.193-.01-.39-.019-.584-.019-.174 0-.346.009-.52.02v-.147h.029c.188 0 .347-.112.418-.317l.772-2.233c.063-.18.15-.423.18-.603.153-.053.346-.15.437-.21.015-.004.023-.01.038-.01s.024 0 .035.016c.014.038.028.082.043.121l.887 2.545c.058.17.115.35.177.496.059.137.16.194.32.194h.028v.147c-.217-.01-.434-.019-.665-.019-.236 0-.478.009-.723.02v-.147h.053c.11 0 .299-.02.299-.141 0-.063-.044-.194-.097-.35l-.188-.565h-1.094l-.154.506zm.703-2.155h-.01l-.448 1.377h.9l-.442-1.377z" fill="#5B5B5B"/>
    <path d="M46.486 14.274c-.216-.01-.433-.02-.663-.02-.236 0-.476.01-.723.02l-.022.001v-.19h.075c.111 0 .277-.026.277-.119.001-.055-.042-.189-.095-.344l-.184-.55h-1.063l-.15.492c-.048.165-.106.294-.106.373.002.119.182.148.342.148h.074v.19l-.022-.001c-.193-.01-.39-.02-.581-.02-.173 0-.347.01-.52.02l-.022.001v-.19h.05c.18 0 .329-.104.398-.302l.772-2.232c.063-.181.15-.424.192-.617.15-.052.344-.15.437-.21.014-.004.027-.01.047-.01a.06.06 0 01.053.028l.043.123.888 2.544c.057.171.114.35.177.495.056.13.145.18.3.181h.049v.19l-.023-.001zm-1.365-.044c.238-.008.472-.018.702-.018.224 0 .434.01.643.018v-.101h-.007c-.165 0-.279-.065-.338-.208-.063-.148-.122-.328-.178-.498l-.887-2.545-.042-.117c-.004-.005-.003-.005-.007-.005H45c-.01 0-.016.003-.029.006a1.785 1.785 0 01-.429.195c-.03.184-.116.427-.179.607l-.771 2.234c-.074.21-.242.331-.438.33h-.008v.102c.165-.008.332-.018.5-.018.186 0 .376.01.56.018v-.101h-.031c-.157-.002-.376-.02-.382-.192 0-.097.06-.221.106-.386l.021.007-.02-.007.158-.52h1.124l.193.578c.054.156.098.285.098.357-.007.15-.21.16-.32.163h-.031v.101zm-.986-1.43l.462-1.42H44.623v.022h-.005.005v-.022h.014l.458 1.42h-.96zm.058-.043h.844l-.42-1.303-.424 1.303zm.409-1.35l.011-.003-.011.004zM46.7 11.1c-.362 0-.376.088-.449.442h-.145c.02-.136.044-.271.06-.413a2.92 2.92 0 00.027-.413h.116c.039.146.16.14.29.14h2.487c.129 0 .25-.004.26-.15l.115.02c-.019.13-.038.262-.053.394-.01.131-.01.263-.01.393l-.144.055c-.01-.18-.033-.468-.357-.468h-.79v2.589c0 .375.17.418.4.418h.091v.146c-.188 0-.524-.019-.785-.019-.289 0-.627.02-.815.02v-.147h.092c.265 0 .4-.024.4-.408v-2.6h-.79z" fill="#5B5B5B"/>
    <path d="M48.598 14.274c-.189 0-.526-.02-.785-.02-.288 0-.626.02-.815.02h-.02v-.188h.112c.265-.007.372-.01.379-.387l-.001-2.578H46.7v-.043h.81v2.62c0 .391-.156.43-.42.43h-.071v.104c.19-.002.514-.02.794-.02.252 0 .574.018.764.02v-.103h-.071c-.232-.001-.42-.058-.42-.44v-2.61h.811c.324 0 .366.278.375.459l.106-.04c0-.126 0-.253.01-.38.013-.126.03-.25.048-.375l-.072-.012c-.022.141-.158.15-.278.147h-2.512c-.114.002-.237-.005-.28-.142h-.08c0 .135-.01.266-.029.396-.013.133-.036.262-.054.39h.103c.064-.339.105-.449.466-.444v.043c-.358.006-.35.067-.428.427l-.004.016h-.186l.003-.024c.02-.137.044-.273.058-.414.02-.135.03-.27.03-.41v-.021h.152l.004.015c.033.123.121.123.245.125l.024.001h2.487c.133-.003.23-.005.239-.132l.001-.023.023.005.137.021-.004.022c-.02.13-.038.262-.053.392-.01.13-.01.261-.01.392v.016l-.013.005-.17.063-.002-.029c-.012-.182-.031-.447-.336-.447h-.77v2.568c.006.367.15.392.379.397h.113v.188h-.02zM49.639 14.107h.067c.174 0 .356-.024.356-.277v-2.55c0-.253-.182-.277-.356-.277h-.068v-.146c.189 0 .477.019.713.019.242 0 .531-.02.758-.02v.147h-.068c-.173 0-.357.024-.357.277v2.55c0 .253.184.277.357.277h.068v.146c-.232 0-.521-.019-.762-.019-.236 0-.52.02-.709.02v-.147z" fill="#5B5B5B"/>
    <path d="M51.109 14.274c-.233 0-.522-.02-.762-.02-.236 0-.52.02-.708.02h-.021V14.086H49.706c.174-.003.334-.018.335-.256v-2.55c-.001-.237-.16-.253-.335-.256h-.088v-.188h.02c.189 0 .478.018.713.018.24 0 .53-.018.758-.018h.02v.188H51.041c-.176.003-.334.019-.336.257v2.549c.002.238.16.253.336.256h.088v.188h-.02zm-.022-.043v-.102h-.046c-.173 0-.377-.031-.377-.3V11.28c0-.268.204-.299.377-.299h.046v-.103c-.223.001-.501.019-.736.019-.228 0-.505-.018-.691-.019v.103h.046c.172 0 .377.03.377.3v2.549c0 .268-.205.299-.377.299h-.046v.102c.186-.002.458-.018.687-.018.234 0 .513.017.74.018zM53.03 10.784c1.028 0 1.847.643 1.847 1.679 0 1.12-.796 1.863-1.821 1.863-1.023 0-1.803-.7-1.803-1.747 0-1.011.775-1.795 1.778-1.795zm.073 3.328c.935 0 1.098-.833 1.098-1.542 0-.711-.38-1.572-1.18-1.572-.843 0-1.094.759-1.094 1.41 0 .871.395 1.704 1.176 1.704z" fill="#5B5B5B"/>
    <path d="M51.231 12.58c.002-1.024.787-1.816 1.8-1.817V10.805c-.991 0-1.758.773-1.759 1.774.003 1.035.771 1.725 1.783 1.725 1.016 0 1.8-.734 1.802-1.842-.001-1.023-.808-1.656-1.827-1.657v-.042c1.036 0 1.865.65 1.867 1.699 0 1.131-.806 1.883-1.842 1.885-1.03-.002-1.822-.71-1.824-1.768zm.675-.172c.002-.654.255-1.432 1.115-1.432.818.002 1.2.88 1.202 1.594-.002.71-.167 1.562-1.12 1.562v-.041c.917-.001 1.076-.812 1.078-1.521 0-.706-.376-1.55-1.16-1.55-.827 0-1.071.74-1.073 1.388 0 .867.392 1.681 1.155 1.683v.041c-.8 0-1.195-.848-1.197-1.724zM58.124 13.294l.01-.01V11.46c0-.4-.276-.457-.42-.457h-.105v-.146c.226 0 .448.019.674.019.198 0 .396-.02.593-.02v.147h-.072c-.202 0-.43.039-.43.618v2.214c0 .17.005.34.03.49h-.183l-2.482-2.792v2.005c0 .423.081.569.452.569h.083v.146c-.208 0-.415-.019-.622-.019-.217 0-.439.02-.656.02v-.147h.068c.333 0 .433-.228.433-.617v-2.05a.433.433 0 00-.438-.437h-.063v-.146c.183 0 .371.02.554.02.145 0 .284-.02.43-.02l2.144 2.437z" fill="#5B5B5B"/>
    <path d="M58.404 14.347l-.2-.007-2.444-2.752v1.95c.005.423.069.543.43.547h.105v.189h-.021c-.21 0-.416-.02-.622-.02-.216 0-.437.02-.656.02h-.02v-.189H55.064c.318-.001.41-.207.413-.595v-2.05a.414.414 0 00-.418-.416h-.083v-.188h.02c.185 0 .372.018.554.018.143 0 .282-.018.445-.01l2.118 2.406v-1.79c-.002-.387-.258-.433-.4-.437h-.126v-.187h.022c.227 0 .449.019.673.019.198 0 .395-.019.594-.019h.021v.188h-.094c-.198.005-.403.024-.407.597v2.214c0 .17.004.34.027.488l.004.024h-.023zm-.183-.043h.158a3.386 3.386 0 01-.025-.47v-2.213c0-.585.243-.638.45-.64h.052v-.103c-.19.001-.38.019-.574.019-.219 0-.434-.018-.653-.019v.103h.085c.15.002.44.068.44.48l-.005 1.838-.01.01-.015.016-2.145-2.447c-.142 0-.282.019-.429.019-.177 0-.358-.018-.533-.019v.103h.042c.226.002.46.174.46.46v2.049c0 .389-.108.637-.455.639h-.047v.102c.209 0 .423-.018.635-.018.201 0 .4.017.6.018v-.102h-.061c-.379 0-.473-.168-.473-.591v-2.06l2.503 2.826zm-.097-1.01l.016-.014-.016.014zm-.011-.01v-.001l-.004-.004.004.006zM59.65 13.557c-.046.165-.105.293-.105.38 0 .146.203.17.361.17h.054v.146c-.193-.01-.39-.019-.583-.019a8.63 8.63 0 00-.52.02v-.147h.027c.19 0 .349-.112.42-.317l.772-2.233c.062-.18.15-.423.178-.603.154-.053.346-.15.439-.21.014-.004.023-.01.038-.01.014 0 .023 0 .033.016.015.038.03.082.044.121l.886 2.545c.058.17.116.35.18.496.057.137.159.194.317.194h.03v.147c-.218-.01-.435-.019-.666-.019-.236 0-.477.009-.723.02v-.147h.053c.11 0 .3-.02.3-.141 0-.063-.044-.194-.098-.35l-.187-.565h-1.094l-.155.506zm.705-2.155h-.01l-.448 1.377h.902l-.444-1.377z" fill="#5B5B5B"/>
    <path d="M62.218 14.274c-.216-.009-.433-.02-.663-.02-.235 0-.476.011-.722.02l-.022.001v-.189h.073c.113 0 .279-.027.28-.12 0-.055-.043-.188-.097-.344l-.183-.55H59.82l-.15.491c-.047.167-.105.295-.104.373 0 .12.18.15.34.15h.074v.19l-.022-.002c-.192-.009-.39-.02-.581-.02-.173 0-.346.011-.52.02l-.021.001v-.189h.048c.18-.001.33-.105.4-.303l.772-2.233c.061-.18.148-.423.191-.616.151-.053.345-.15.438-.21.013-.004.026-.01.046-.01a.054.054 0 01.053.029c.014.038.028.082.044.121l.886 2.545c.058.17.116.35.178.495.057.13.145.18.298.182h.05v.19l-.022-.002zm-1.365-.043c.238-.01.472-.019.702-.019.224 0 .434.01.644.018v-.101h-.009c-.163 0-.277-.065-.337-.208-.063-.148-.12-.328-.178-.498l-.887-2.545-.04-.116c-.005-.006-.004-.006-.008-.006h-.01c-.009 0-.014.003-.026.007-.094.06-.287.156-.43.194-.03.184-.117.427-.18.607l-.771 2.233c-.073.212-.242.332-.439.332h-.007v.101c.166-.008.332-.018.5-.018.186 0 .376.01.562.018v-.101h-.033c-.157-.002-.377-.02-.382-.192 0-.097.06-.22.107-.386l.02.007-.02-.008.159-.52h1.124l.193.579c.053.156.097.285.097.357-.007.15-.21.16-.32.163h-.031v.102zm-.985-1.432l.462-1.419h.025v.022h-.005.005v-.022h.015l.456 1.42h-.958zm.058-.042h.843l-.42-1.303-.423 1.303zm.41-1.35l.009-.003-.01.004zM63.435 13.776c0 .195.134.253.288.273.197.015.414.015.637-.01a.689.689 0 00.462-.263c.077-.107.12-.243.15-.35h.139c-.053.277-.12.55-.179.827-.423 0-.848-.019-1.271-.019-.425 0-.848.02-1.272.02v-.147h.066c.174 0 .363-.024.363-.326v-2.5c0-.254-.189-.278-.363-.278h-.066v-.146c.254 0 .505.019.76.019.247 0 .487-.02.733-.02v.147h-.12c-.183 0-.327.005-.327.262v2.511z" fill="#5B5B5B"/>
    <path d="M64.932 14.274c-.424 0-.848-.02-1.271-.02-.425 0-.849.02-1.273.02h-.02v-.188H62.454c.175-.004.34-.017.342-.305V11.28c-.002-.237-.166-.253-.342-.256h-.088v-.188h.02c.257 0 .508.018.763.018.244 0 .485-.018.732-.018h.02v.188H63.762c-.187.005-.304-.004-.307.241v2.511c0 .181.119.23.269.252a3.8 3.8 0 00.632-.01.67.67 0 00.449-.254c.074-.103.117-.237.145-.343l.005-.016h.181l-.004.025c-.055.279-.12.55-.18.827l-.003.017h-.016zm-.017-.043c.056-.263.119-.521.17-.785h-.098c-.03.106-.073.237-.149.343a.712.712 0 01-.477.271 3.611 3.611 0 01-.64.01c-.157-.018-.31-.086-.309-.294v-2.51c0-.27.17-.285.35-.285h.099v-.103c-.238.001-.472.02-.712.02-.25 0-.493-.019-.74-.02v.103h.046c.172 0 .382.03.382.299v2.501c0 .315-.21.348-.382.348h-.047v.102c.417 0 .834-.018 1.253-.018.418 0 .837.018 1.254.018zM65.052 10.719c.29 0 .508.225.508.514a.5.5 0 01-.508.51.5.5 0 01-.507-.51c0-.29.217-.514.507-.514zm0 .929a.411.411 0 00.402-.415.411.411 0 00-.402-.419.413.413 0 00-.402.419c0 .22.174.415.402.415zm-.252-.146v-.025c.062-.009.074-.007.074-.046v-.379c0-.053-.006-.071-.072-.069v-.026h.26c.09 0 .171.043.171.136 0 .076-.05.133-.12.155l.083.117c.04.053.083.103.112.121v.016h-.099c-.047 0-.088-.1-.182-.236h-.056v.17c0 .034.011.032.074.041v.025H64.8zm.17-.27h.06c.066 0 .097-.05.097-.13 0-.082-.048-.11-.1-.11h-.056v.24zM13.015 17.003c4.603.022 8.805-3.79 8.805-8.428 0-5.071-4.202-8.577-8.805-8.575H9.053C4.394-.002.56 3.505.56 8.575c0 4.639 3.834 8.45 8.493 8.428h3.962z" fill="#5B5B5B"/>
    <path d="M9.072.703C4.815.704 1.365 4.187 1.364 8.486c.001 4.299 3.45 7.781 7.708 7.783 4.258-.002 7.708-3.484 7.708-7.783S13.33.704 9.072.703zM4.186 8.486a4.94 4.94 0 013.136-4.604v9.207a4.937 4.937 0 01-3.136-4.603zm6.634 4.605V3.882a4.937 4.937 0 013.138 4.604 4.939 4.939 0 01-3.138 4.605z" fill="#242424"/>
    <path d="M24.52 3.658c0-.804-.416-.751-.814-.76v-.232c.345.017.699.017 1.045.017.372 0 .877-.017 1.532-.017 2.294 0 3.543 1.546 3.543 3.13 0 .885-.514 3.111-3.65 3.111-.45 0-.867-.017-1.284-.017-.398 0-.788.008-1.186.017v-.232c.53-.054.788-.072.814-.68V3.658zm.868 4.194c0 .689.487.77.921.77 1.914 0 2.542-1.459 2.542-2.791 0-1.672-1.063-2.879-2.772-2.879-.364 0-.53.027-.691.036v4.864zM30.136 8.675h.168c.248 0 .425 0 .425-.296V5.956c0-.393-.133-.447-.46-.625v-.143c.416-.127.912-.295.947-.322a.313.313 0 01.16-.045c.044 0 .062.054.062.125V8.38c0 .296.195.296.443.296h.15v.233c-.301 0-.611-.018-.93-.018a34.8 34.8 0 00-.965.018v-.233zm.948-5.231c-.23 0-.434-.215-.434-.447 0-.224.213-.43.434-.43.23 0 .434.188.434.43a.445.445 0 01-.434.447zM32.873 6.01c0-.33-.098-.42-.514-.59v-.17c.38-.125.743-.241 1.169-.43.026 0 .052.019.052.09v.582c.506-.367.94-.671 1.534-.671.752 0 1.018.554 1.018 1.251V8.38c0 .296.195.296.443.296h.16v.233c-.311 0-.621-.018-.94-.018-.319 0-.638.009-.956.018v-.233h.159c.249 0 .425 0 .425-.296V6.064c0-.51-.309-.76-.814-.76-.283 0-.735.232-1.029.43v2.645c0 .296.196.296.445.296h.159v.233c-.31 0-.62-.018-.94-.018-.318 0-.638.009-.956.018v-.233h.16c.248 0 .425 0 .425-.296V6.01zM37.408 6.44c-.019.08-.019.214 0 .518.052.85.594 1.547 1.301 1.547.488 0 .87-.268 1.197-.599l.123.126c-.408.545-.912 1.01-1.638 1.01-1.409 0-1.692-1.378-1.692-1.95 0-1.753 1.169-2.271 1.788-2.271.718 0 1.49.455 1.498 1.403 0 .055 0 .108-.009.162l-.08.054h-2.488zm1.568-.287c.22 0 .247-.116.247-.223 0-.456-.275-.823-.77-.823-.54 0-.913.402-1.019 1.046h1.542zM40.189 8.675h.239c.247 0 .424 0 .424-.296V5.867c0-.277-.327-.33-.46-.402V5.33c.646-.278 1.001-.51 1.082-.51.052 0 .078.027.078.116v.805h.019c.22-.349.593-.921 1.133-.921.222 0 .505.151.505.474 0 .241-.168.456-.416.456-.276 0-.276-.215-.585-.215-.15 0-.646.206-.646.743v2.1c0 .296.176.296.425.296h.495v.233c-.487-.01-.858-.018-1.24-.018-.362 0-.734.009-1.053.018v-.233zM43.599 7.664c.115.59.469 1.091 1.116 1.091.521 0 .716-.321.716-.634 0-1.056-1.93-.716-1.93-2.155 0-.501.4-1.145 1.373-1.145.283 0 .664.08 1.009.26l.063.91h-.204c-.089-.562-.398-.884-.966-.884-.354 0-.69.206-.69.59 0 1.047 2.054.724 2.054 2.128 0 .59-.47 1.217-1.523 1.217-.355 0-.77-.126-1.08-.304l-.098-1.029.16-.045zM54.138 4.284h-.221c-.169-1.046-.904-1.466-1.895-1.466-1.02 0-2.499.688-2.499 2.834 0 1.807 1.276 3.104 2.64 3.104.877 0 1.603-.608 1.78-1.548l.204.054-.203 1.305c-.372.233-1.373.475-1.959.475-2.072 0-3.382-1.35-3.382-3.363 0-1.833 1.62-3.148 3.356-3.148.718 0 1.408.233 2.09.475l.089 1.278zM54.457 8.675h.168c.248 0 .426 0 .426-.296V3.4c0-.581-.133-.6-.47-.697v-.143c.354-.116.726-.278.913-.385.096-.054.168-.099.194-.099.054 0 .072.054.072.126v6.178c0 .296.194.296.442.296h.15v.233c-.3 0-.61-.018-.93-.018-.318 0-.637.009-.965.018v-.233zM60.144 8.415c0 .162.097.17.247.17.107 0 .24-.008.355-.008v.188c-.381.035-1.108.223-1.276.277l-.044-.027V8.29c-.531.438-.94.75-1.569.75-.478 0-.974-.312-.974-1.063v-2.29c0-.232-.035-.456-.53-.5v-.17c.32-.01 1.026-.063 1.142-.063.098 0 .098.063.098.26V7.52c0 .269 0 1.037.77 1.037.301 0 .7-.232 1.071-.544V5.607c0-.178-.424-.276-.743-.366v-.16c.796-.055 1.293-.126 1.381-.126.072 0 .072.062.072.161v3.3zM61.906 5.465c.354-.304.832-.644 1.32-.644 1.028 0 1.647.904 1.647 1.878 0 1.171-.85 2.343-2.117 2.343-.655 0-1-.215-1.231-.313l-.265.205-.186-.098c.079-.527.124-1.046.124-1.592V3.4c0-.581-.134-.6-.47-.697v-.143c.355-.116.726-.278.912-.385.098-.054.168-.099.196-.099.053 0 .07.054.07.126v3.264zm0 2.432c0 .34.319.913.912.913.948 0 1.346-.94 1.346-1.736 0-.966-.725-1.77-1.416-1.77-.329 0-.603.215-.842.42v2.173zM23.696 14.107h.067c.174 0 .357-.024.357-.277v-2.55c0-.253-.183-.277-.357-.277h-.067v-.146c.188 0 .477.019.714.019.24 0 .53-.02.756-.02v.147h-.068c-.173 0-.356.024-.356.277v2.55c0 .253.183.277.356.277h.068v.146c-.232 0-.521-.019-.762-.019-.236 0-.52.02-.708.02v-.147z" fill="#5B5B5B"/>
    <path d="M25.166 14.274c-.233 0-.522-.02-.762-.02-.235 0-.519.02-.708.02h-.02V14.086H23.762c.175-.004.334-.019.336-.256v-2.55c-.002-.237-.16-.253-.336-.256h-.088v-.189h.02c.19 0 .48.02.715.02.24 0 .528-.02.756-.02h.021v.189H25.098c-.174.003-.334.019-.335.257v2.549c0 .237.16.252.335.256h.09v.188h-.022zm-.02-.042v-.103h-.048c-.172 0-.377-.03-.378-.3V11.28c.001-.268.206-.299.378-.299h.047v-.103c-.222 0-.501.019-.735.019-.23 0-.506-.018-.693-.019v.103h.046c.172 0 .378.03.378.3v2.549c0 .268-.206.299-.378.299h-.046v.103c.187-.002.459-.02.687-.02.235 0 .514.019.741.02zM28.477 13.294l.01-.01V11.46c0-.4-.276-.457-.42-.457h-.106v-.146c.227 0 .448.019.674.019.198 0 .396-.02.594-.02v.147h-.073c-.203 0-.429.039-.429.618v2.214c0 .17.005.34.029.49h-.184l-2.481-2.792v2.005c0 .423.081.569.453.569h.081v.146c-.207 0-.413-.019-.621-.019-.216 0-.438.02-.655.02v-.147h.067c.333 0 .434-.228.434-.617v-2.05a.434.434 0 00-.439-.437h-.062v-.146c.183 0 .37.02.553.02.145 0 .285-.02.43-.02l2.145 2.437z" fill="#5B5B5B"/>
    <path d="M28.756 14.347l-.2-.007-2.445-2.752v1.95c.006.423.07.543.433.548h.103v.188h-.021c-.21 0-.417-.02-.622-.02-.216 0-.437.02-.656.02h-.02v-.188H25.415c.319-.002.41-.209.413-.596v-2.05a.415.415 0 00-.418-.416h-.084v-.188h.021c.184 0 .373.018.554.018.143 0 .283-.018.445-.011l2.118 2.407v-1.79c-.002-.387-.258-.433-.398-.437h-.128v-.187h.021c.228 0 .45.018.675.018.196 0 .394-.018.593-.018h.021v.188h-.093c-.199.005-.403.023-.408.597v2.214c0 .17.005.34.028.487l.005.025h-.025zm-.183-.043h.159a3.278 3.278 0 01-.026-.47v-2.213c0-.584.243-.64.45-.64h.051v-.103c-.19.001-.38.019-.572.019-.22 0-.435-.018-.653-.019v.103h.085c.148 0 .44.067.44.48l-.006 1.838-.01.01-.016.016-2.144-2.447c-.142 0-.282.019-.429.019-.177 0-.358-.018-.532-.019l-.001.103h.042c.227 0 .459.175.459.46v2.048c0 .39-.107.638-.454.64l-.046-.002v.105c.208-.002.423-.02.634-.02.201 0 .401.018.6.02v-.103h-.06c-.38-.002-.474-.168-.474-.591v-2.06l2.503 2.826zm-.096-1.01l.015-.014-.015.014zm-.012-.01v-.001l-.003-.004.003.005zM29.95 11.1c-.362 0-.376.088-.448.442h-.144c.018-.136.043-.271.057-.413a2.92 2.92 0 00.029-.413h.116c.039.146.16.14.29.14h2.486c.13 0 .25-.004.26-.15l.115.02c-.018.13-.038.262-.052.394-.01.131-.01.263-.01.393l-.144.055c-.01-.18-.034-.468-.357-.468h-.79v2.589c0 .375.169.418.4.418h.091v.146c-.188 0-.526-.019-.785-.019-.29 0-.627.02-.815.02v-.147h.092c.265 0 .4-.024.4-.408v-2.6h-.791z" fill="#5B5B5B"/>
    <path d="M31.85 14.274c-.19 0-.527-.02-.786-.02-.289 0-.626.02-.815.02h-.02v-.188h.112c.265-.007.372-.01.378-.387V11.12h-.769v-.043h.811v2.62c0 .391-.156.43-.42.43h-.071v.103c.19 0 .514-.018.794-.018.251 0 .573.017.764.018v-.102h-.07c-.234 0-.421-.058-.421-.44v-2.61h.811c.324 0 .366.278.377.459l.104-.04c0-.126 0-.253.009-.381.014-.126.032-.25.05-.374l-.074-.012c-.022.141-.158.148-.279.147h-2.51c-.114 0-.238-.005-.28-.141h-.08c0 .134-.01.265-.029.394-.014.134-.036.263-.054.391h.103c.064-.339.105-.449.465-.444v.043c-.356.006-.349.067-.427.427l-.004.016h-.186l.003-.025c.02-.136.044-.272.058-.414.02-.135.03-.27.03-.41v-.02h.152l.004.015c.033.122.122.123.245.125h2.51c.134-.002.232-.004.24-.131l.002-.023.022.005.136.021-.003.022c-.02.13-.038.261-.052.392-.01.13-.01.261-.01.392v.015l-.013.006-.171.063-.002-.029c-.012-.183-.031-.447-.336-.447h-.769v2.568c.004.367.149.392.378.397h.113v.188h-.02zM32.865 14.107h.068c.173 0 .357-.024.357-.277v-2.55c0-.253-.184-.277-.357-.277h-.068v-.146c.294 0 .796.019 1.2.019.406 0 .906-.02 1.233-.02a8.35 8.35 0 00.011.745l-.145.04c-.023-.317-.081-.57-.587-.57h-.67v1.275h.573c.29 0 .352-.165.38-.429h.145a11.681 11.681 0 000 1.125l-.144.029c-.029-.292-.043-.482-.376-.482h-.578v1.133c0 .317.279.317.587.317.579 0 .834-.04.979-.593l.135.033c-.064.259-.121.516-.164.774-.309 0-.863-.019-1.296-.019-.435 0-1.008.02-1.283.02v-.147z" fill="#5B5B5B"/>
    <path d="M35.444 14.274c-.31 0-.864-.02-1.297-.02-.434 0-1.006.02-1.282.02h-.02V14.086H32.933c.175-.003.333-.018.336-.256v-2.55c-.003-.237-.161-.253-.336-.256h-.088v-.188h.02c.294 0 .796.018 1.2.018.405 0 .905-.018 1.233-.018h.022l-.001.021a7.523 7.523 0 00.01.742v.018l-.016.005-.169.044-.001-.024c-.028-.316-.07-.545-.566-.55h-.65v1.232h.553c.277-.003.327-.146.36-.409l.002-.019h.184v.022a11.044 11.044 0 000 1.123v.017l-.017.004-.167.034-.002-.023c-.033-.297-.036-.46-.356-.463h-.557v1.112c0 .296.253.294.567.296.58-.004.813-.032.959-.578l.004-.02.02.004.155.04-.005.02c-.062.258-.12.515-.163.773l-.004.017h-.016zm-.018-.043c.042-.245.097-.491.156-.736l-.095-.024c-.145.544-.424.593-.993.589-.303 0-.607 0-.609-.338v-1.154h.6c.336-.004.37.201.394.478l.104-.022a10.276 10.276 0 010-1.086h-.104c-.027.254-.105.432-.399.428h-.595V11.05h.692c.5-.004.584.257.605.563l.104-.028a8.254 8.254 0 01-.009-.707c-.328.001-.815.019-1.212.019-.396 0-.884-.018-1.179-.019v.103h.047c.172 0 .377.03.378.3v2.549c-.001.268-.206.297-.378.299h-.047v.102c.281 0 .838-.018 1.261-.018.425 0 .968.018 1.279.018zM36.258 11.372c0-.355-.193-.37-.343-.37h-.086v-.146c.154 0 .453.02.747.02.289 0 .52-.02.776-.02.606 0 1.147.166 1.147.858 0 .436-.29.704-.67.856l.824 1.245c.135.206.23.263.467.292v.146c-.159 0-.313-.019-.472-.019-.15 0-.304.02-.453.02a13.62 13.62 0 01-1.003-1.578h-.317v1.042c0 .375.173.389.395.389h.086v.146c-.275 0-.553-.019-.828-.019-.232 0-.459.02-.7.02v-.147h.087c.18 0 .343-.082.343-.263v-2.472zm.617 1.13h.235c.483 0 .742-.186.742-.76 0-.433-.274-.71-.703-.71-.145 0-.207.015-.274.02v1.45z" fill="#5B5B5B"/>
    <path d="M39.12 14.274c-.161 0-.314-.02-.473-.02-.147 0-.3.02-.469.012-.37-.49-.686-1.012-.998-1.568h-.284v1.02c.005.365.15.362.373.368h.108v.188h-.021c-.276 0-.555-.02-.829-.02-.23 0-.456.02-.698.02h-.021v-.188h.107c.174-.001.32-.078.321-.242v-2.472c-.003-.345-.17-.343-.32-.348h-.108v-.189h.02c.157 0 .454.02.748.02.287 0 .52-.02.776-.02.607.002 1.166.171 1.168.877 0 .44-.288.714-.66.867l.81 1.224c.135.202.219.252.453.283l.018.002v.186h-.02zm-2.245-1.619h.33l.005.011c.314.56.63 1.084.985 1.566.147 0 .302-.02.452-.02.154 0 .303.017.453.02v-.107c-.227-.028-.333-.096-.464-.298l-.839-1.267.024-.01c.377-.15.656-.41.656-.838 0-.675-.52-.831-1.125-.834-.255 0-.486.02-.776.02-.283 0-.57-.019-.727-.02v.103h.066c.15 0 .363.026.363.391v2.472c0 .196-.181.285-.363.285h-.066v.103c.232-.001.452-.02.678-.02.27 0 .541.019.808.02v-.103h-.066c-.22 0-.416-.028-.416-.412v-1.062h.021zm0-.133h-.022v-1.49l.019-.002c.066-.005.13-.019.277-.019.439 0 .724.288.725.732-.002.58-.278.778-.764.779h-.235zm.235-.042c.478-.004.718-.171.723-.737-.003-.425-.265-.689-.684-.69-.13 0-.192.012-.253.017v1.41h.214zM42.392 13.294l.009-.01V11.46c0-.4-.274-.457-.419-.457h-.105v-.146c.226 0 .447.019.674.019.198 0 .395-.02.594-.02v.147h-.073c-.202 0-.429.039-.429.618v2.214c0 .17.005.34.028.49h-.182l-2.482-2.792v2.005c0 .423.082.569.453.569h.082v.146c-.207 0-.415-.019-.622-.019-.217 0-.439.02-.655.02v-.147h.066c.333 0 .435-.228.435-.617v-2.05a.434.434 0 00-.438-.437h-.063v-.146c.182 0 .371.02.554.02.143 0 .284-.02.428-.02l2.145 2.437z" fill="#5B5B5B"/>
    <path d="M42.672 14.347l-.199-.007-2.446-2.752v1.95c.006.423.07.543.433.548h.102v.188h-.021c-.209 0-.415-.02-.622-.02-.215 0-.438.02-.654.02h-.022v-.188h.088c.319-.002.41-.209.413-.598V11.44c0-.259-.21-.416-.417-.417h-.084v-.188h.022c.183 0 .372.02.554.02.141 0 .281-.02.443-.013l2.118 2.408v-1.79c-.001-.387-.258-.435-.398-.437h-.127v-.188h.021c.228 0 .45.02.675.02.197 0 .394-.02.593-.02h.02v.188h-.092c-.199.006-.404.024-.409.598v2.214c0 .17.005.338.029.488l.003.024h-.023zm-.183-.043h.158a3.367 3.367 0 01-.026-.47v-2.213c0-.585.244-.638.451-.64h.05v-.103c-.189.001-.38.019-.571.019-.221 0-.436-.018-.654-.019v.103h.085c.149.002.44.067.44.479l-.006 1.84-.01.01-.014.015-2.145-2.447c-.143 0-.283.019-.428.019-.179 0-.359-.018-.534-.019v.103h.042a.457.457 0 01.459.46v2.047c0 .39-.109.64-.455.64h-.046v.103c.208 0 .423-.018.634-.018.203 0 .403.017.602.018v-.102h-.061c-.38 0-.474-.168-.475-.592V11.48l2.504 2.825zm-.097-1.01l.015-.014-.015.014zm-.012-.01v-.001l-.004-.004.004.006zM43.92 13.557c-.05.165-.107.293-.107.38 0 .146.203.17.36.17h.055v.146c-.193-.01-.39-.019-.584-.019-.174 0-.346.009-.52.02v-.147h.029c.188 0 .347-.112.418-.317l.772-2.233c.063-.18.15-.423.18-.603.153-.053.346-.15.437-.21.015-.004.023-.01.038-.01s.024 0 .035.016c.014.038.028.082.043.121l.887 2.545c.058.17.115.35.177.496.059.137.16.194.32.194h.028v.147c-.217-.01-.434-.019-.665-.019-.236 0-.478.009-.723.02v-.147h.053c.11 0 .299-.02.299-.141 0-.063-.044-.194-.097-.35l-.188-.565h-1.094l-.154.506zm.703-2.155h-.01l-.448 1.377h.9l-.442-1.377z" fill="#5B5B5B"/>
    <path d="M46.486 14.274c-.216-.01-.433-.02-.663-.02-.236 0-.476.01-.723.02l-.022.001v-.19h.075c.111 0 .277-.026.277-.119.001-.055-.042-.189-.095-.344l-.184-.55h-1.063l-.15.492c-.048.165-.106.294-.106.373.002.119.182.148.342.148h.074v.19l-.022-.001c-.193-.01-.39-.02-.581-.02-.173 0-.347.01-.52.02l-.022.001v-.19h.05c.18 0 .329-.104.398-.302l.772-2.232c.063-.181.15-.424.192-.617.15-.052.344-.15.437-.21.014-.004.027-.01.047-.01a.06.06 0 01.053.028l.043.123.888 2.544c.057.171.114.35.177.495.056.13.145.18.3.181h.049v.19l-.023-.001zm-1.365-.044c.238-.008.472-.018.702-.018.224 0 .434.01.643.018v-.101h-.007c-.165 0-.279-.065-.338-.208-.063-.148-.122-.328-.178-.498l-.887-2.545-.042-.117c-.004-.005-.003-.005-.007-.005H45c-.01 0-.016.003-.029.006a1.785 1.785 0 01-.429.195c-.03.184-.116.427-.179.607l-.771 2.234c-.074.21-.242.331-.438.33h-.008v.102c.165-.008.332-.018.5-.018.186 0 .376.01.56.018v-.101h-.031c-.157-.002-.376-.02-.382-.192 0-.097.06-.221.106-.386l.021.007-.02-.007.158-.52h1.124l.193.578c.054.156.098.285.098.357-.007.15-.21.16-.32.163h-.031v.101zm-.986-1.43l.462-1.42H44.623v.022h-.005.005v-.022h.014l.458 1.42h-.96zm.058-.043h.844l-.42-1.303-.424 1.303zm.409-1.35l.011-.003-.011.004zM46.7 11.1c-.362 0-.376.088-.449.442h-.145c.02-.136.044-.271.06-.413a2.92 2.92 0 00.027-.413h.116c.039.146.16.14.29.14h2.487c.129 0 .25-.004.26-.15l.115.02c-.019.13-.038.262-.053.394-.01.131-.01.263-.01.393l-.144.055c-.01-.18-.033-.468-.357-.468h-.79v2.589c0 .375.17.418.4.418h.091v.146c-.188 0-.524-.019-.785-.019-.289 0-.627.02-.815.02v-.147h.092c.265 0 .4-.024.4-.408v-2.6h-.79z" fill="#5B5B5B"/>
    <path d="M48.598 14.274c-.189 0-.526-.02-.785-.02-.288 0-.626.02-.815.02h-.02v-.188h.112c.265-.007.372-.01.379-.387l-.001-2.578H46.7v-.043h.81v2.62c0 .391-.156.43-.42.43h-.071v.104c.19-.002.514-.02.794-.02.252 0 .574.018.764.02v-.103h-.071c-.232-.001-.42-.058-.42-.44v-2.61h.811c.324 0 .366.278.375.459l.106-.04c0-.126 0-.253.01-.38.013-.126.03-.25.048-.375l-.072-.012c-.022.141-.158.15-.278.147h-2.512c-.114.002-.237-.005-.28-.142h-.08c0 .135-.01.266-.029.396-.013.133-.036.262-.054.39h.103c.064-.339.105-.449.466-.444v.043c-.358.006-.35.067-.428.427l-.004.016h-.186l.003-.024c.02-.137.044-.273.058-.414.02-.135.03-.27.03-.41v-.021h.152l.004.015c.033.123.121.123.245.125l.024.001h2.487c.133-.003.23-.005.239-.132l.001-.023.023.005.137.021-.004.022c-.02.13-.038.262-.053.392-.01.13-.01.261-.01.392v.016l-.013.005-.17.063-.002-.029c-.012-.182-.031-.447-.336-.447h-.77v2.568c.006.367.15.392.379.397h.113v.188h-.02zM49.639 14.107h.067c.174 0 .356-.024.356-.277v-2.55c0-.253-.182-.277-.356-.277h-.068v-.146c.189 0 .477.019.713.019.242 0 .531-.02.758-.02v.147h-.068c-.173 0-.357.024-.357.277v2.55c0 .253.184.277.357.277h.068v.146c-.232 0-.521-.019-.762-.019-.236 0-.52.02-.709.02v-.147z" fill="#5B5B5B"/>
    <path d="M51.109 14.274c-.233 0-.522-.02-.762-.02-.236 0-.52.02-.708.02h-.021V14.086H49.706c.174-.003.334-.018.335-.256v-2.55c-.001-.237-.16-.253-.335-.256h-.088v-.188h.02c.189 0 .478.018.713.018.24 0 .53-.018.758-.018h.02v.188H51.041c-.176.003-.334.019-.336.257v2.549c.002.238.16.253.336.256h.088v.188h-.02zm-.022-.043v-.102h-.046c-.173 0-.377-.031-.377-.3V11.28c0-.268.204-.299.377-.299h.046v-.103c-.223.001-.501.019-.736.019-.228 0-.505-.018-.691-.019v.103h.046c.172 0 .377.03.377.3v2.549c0 .268-.205.299-.377.299h-.046v.102c.186-.002.458-.018.687-.018.234 0 .513.017.74.018zM53.03 10.784c1.028 0 1.847.643 1.847 1.679 0 1.12-.796 1.863-1.821 1.863-1.023 0-1.803-.7-1.803-1.747 0-1.011.775-1.795 1.778-1.795zm.073 3.328c.935 0 1.098-.833 1.098-1.542 0-.711-.38-1.572-1.18-1.572-.843 0-1.094.759-1.094 1.41 0 .871.395 1.704 1.176 1.704z" fill="#5B5B5B"/>
    <path d="M51.231 12.58c.002-1.024.787-1.816 1.8-1.817V10.805c-.991 0-1.758.773-1.759 1.774.003 1.035.771 1.725 1.783 1.725 1.016 0 1.8-.734 1.802-1.842-.001-1.023-.808-1.656-1.827-1.657v-.042c1.036 0 1.865.65 1.867 1.699 0 1.131-.806 1.883-1.842 1.885-1.03-.002-1.822-.71-1.824-1.768zm.675-.172c.002-.654.255-1.432 1.115-1.432.818.002 1.2.88 1.202 1.594-.002.71-.167 1.562-1.12 1.562v-.041c.917-.001 1.076-.812 1.078-1.521 0-.706-.376-1.55-1.16-1.55-.827 0-1.071.74-1.073 1.388 0 .867.392 1.681 1.155 1.683v.041c-.8 0-1.195-.848-1.197-1.724zM58.124 13.294l.01-.01V11.46c0-.4-.276-.457-.42-.457h-.105v-.146c.226 0 .448.019.674.019.198 0 .396-.02.593-.02v.147h-.072c-.202 0-.43.039-.43.618v2.214c0 .17.005.34.03.49h-.183l-2.482-2.792v2.005c0 .423.081.569.452.569h.083v.146c-.208 0-.415-.019-.622-.019-.217 0-.439.02-.656.02v-.147h.068c.333 0 .433-.228.433-.617v-2.05a.433.433 0 00-.438-.437h-.063v-.146c.183 0 .371.02.554.02.145 0 .284-.02.43-.02l2.144 2.437z" fill="#5B5B5B"/>
    <path d="M58.404 14.347l-.2-.007-2.444-2.752v1.95c.005.423.069.543.43.547h.105v.189h-.021c-.21 0-.416-.02-.622-.02-.216 0-.437.02-.656.02h-.02v-.189H55.064c.318-.001.41-.207.413-.595v-2.05a.414.414 0 00-.418-.416h-.083v-.188h.02c.185 0 .372.018.554.018.143 0 .282-.018.445-.01l2.118 2.406v-1.79c-.002-.387-.258-.433-.4-.437h-.126v-.187h.022c.227 0 .449.019.673.019.198 0 .395-.019.594-.019h.021v.188h-.094c-.198.005-.403.024-.407.597v2.214c0 .17.004.34.027.488l.004.024h-.023zm-.183-.043h.158a3.386 3.386 0 01-.025-.47v-2.213c0-.585.243-.638.45-.64h.052v-.103c-.19.001-.38.019-.574.019-.219 0-.434-.018-.653-.019v.103h.085c.15.002.44.068.44.48l-.005 1.838-.01.01-.015.016-2.145-2.447c-.142 0-.282.019-.429.019-.177 0-.358-.018-.533-.019v.103h.042c.226.002.46.174.46.46v2.049c0 .389-.108.637-.455.639h-.047v.102c.209 0 .423-.018.635-.018.201 0 .4.017.6.018v-.102h-.061c-.379 0-.473-.168-.473-.591v-2.06l2.503 2.826zm-.097-1.01l.016-.014-.016.014zm-.011-.01v-.001l-.004-.004.004.006zM59.65 13.557c-.046.165-.105.293-.105.38 0 .146.203.17.361.17h.054v.146c-.193-.01-.39-.019-.583-.019a8.63 8.63 0 00-.52.02v-.147h.027c.19 0 .349-.112.42-.317l.772-2.233c.062-.18.15-.423.178-.603.154-.053.346-.15.439-.21.014-.004.023-.01.038-.01.014 0 .023 0 .033.016.015.038.03.082.044.121l.886 2.545c.058.17.116.35.18.496.057.137.159.194.317.194h.03v.147c-.218-.01-.435-.019-.666-.019-.236 0-.477.009-.723.02v-.147h.053c.11 0 .3-.02.3-.141 0-.063-.044-.194-.098-.35l-.187-.565h-1.094l-.155.506zm.705-2.155h-.01l-.448 1.377h.902l-.444-1.377z" fill="#5B5B5B"/>
    <path d="M62.218 14.274c-.216-.009-.433-.02-.663-.02-.235 0-.476.011-.722.02l-.022.001v-.189h.073c.113 0 .279-.027.28-.12 0-.055-.043-.188-.097-.344l-.183-.55H59.82l-.15.491c-.047.167-.105.295-.104.373 0 .12.18.15.34.15h.074v.19l-.022-.002c-.192-.009-.39-.02-.581-.02-.173 0-.346.011-.52.02l-.021.001v-.189h.048c.18-.001.33-.105.4-.303l.772-2.233c.061-.18.148-.423.191-.616.151-.053.345-.15.438-.21.013-.004.026-.01.046-.01a.054.054 0 01.053.029c.014.038.028.082.044.121l.886 2.545c.058.17.116.35.178.495.057.13.145.18.298.182h.05v.19l-.022-.002zm-1.365-.043c.238-.01.472-.019.702-.019.224 0 .434.01.644.018v-.101h-.009c-.163 0-.277-.065-.337-.208-.063-.148-.12-.328-.178-.498l-.887-2.545-.04-.116c-.005-.006-.004-.006-.008-.006h-.01c-.009 0-.014.003-.026.007-.094.06-.287.156-.43.194-.03.184-.117.427-.18.607l-.771 2.233c-.073.212-.242.332-.439.332h-.007v.101c.166-.008.332-.018.5-.018.186 0 .376.01.562.018v-.101h-.033c-.157-.002-.377-.02-.382-.192 0-.097.06-.22.107-.386l.02.007-.02-.008.159-.52h1.124l.193.579c.053.156.097.285.097.357-.007.15-.21.16-.32.163h-.031v.102zm-.985-1.432l.462-1.419h.025v.022h-.005.005v-.022h.015l.456 1.42h-.958zm.058-.042h.843l-.42-1.303-.423 1.303zm.41-1.35l.009-.003-.01.004zM63.435 13.776c0 .195.134.253.288.273.197.015.414.015.637-.01a.689.689 0 00.462-.263c.077-.107.12-.243.15-.35h.139c-.053.277-.12.55-.179.827-.423 0-.848-.019-1.271-.019-.425 0-.848.02-1.272.02v-.147h.066c.174 0 .363-.024.363-.326v-2.5c0-.254-.189-.278-.363-.278h-.066v-.146c.254 0 .505.019.76.019.247 0 .487-.02.733-.02v.147h-.12c-.183 0-.327.005-.327.262v2.511z" fill="#5B5B5B"/>
    <path d="M64.932 14.274c-.424 0-.848-.02-1.271-.02-.425 0-.849.02-1.273.02h-.02v-.188H62.454c.175-.004.34-.017.342-.305V11.28c-.002-.237-.166-.253-.342-.256h-.088v-.188h.02c.257 0 .508.018.763.018.244 0 .485-.018.732-.018h.02v.188H63.762c-.187.005-.304-.004-.307.241v2.511c0 .181.119.23.269.252a3.8 3.8 0 00.632-.01.67.67 0 00.449-.254c.074-.103.117-.237.145-.343l.005-.016h.181l-.004.025c-.055.279-.12.55-.18.827l-.003.017h-.016zm-.017-.043c.056-.263.119-.521.17-.785h-.098c-.03.106-.073.237-.149.343a.712.712 0 01-.477.271 3.611 3.611 0 01-.64.01c-.157-.018-.31-.086-.309-.294v-2.51c0-.27.17-.285.35-.285h.099v-.103c-.238.001-.472.02-.712.02-.25 0-.493-.019-.74-.02v.103h.046c.172 0 .382.03.382.299v2.501c0 .315-.21.348-.382.348h-.047v.102c.417 0 .834-.018 1.253-.018.418 0 .837.018 1.254.018zM65.052 10.719c.29 0 .508.225.508.514a.5.5 0 01-.508.51.5.5 0 01-.507-.51c0-.29.217-.514.507-.514zm0 .929a.411.411 0 00.402-.415.411.411 0 00-.402-.419.413.413 0 00-.402.419c0 .22.174.415.402.415zm-.252-.146v-.025c.062-.009.074-.007.074-.046v-.379c0-.053-.006-.071-.072-.069v-.026h.26c.09 0 .171.043.171.136 0 .076-.05.133-.12.155l.083.117c.04.053.083.103.112.121v.016h-.099c-.047 0-.088-.1-.182-.236h-.056v.17c0 .034.011.032.074.041v.025H64.8zm.17-.27h.06c.066 0 .097-.05.097-.13 0-.082-.048-.11-.1-.11h-.056v.24z" fill="#5B5B5B"/>
</svg>
