<svg width="54" height="9" fill="none" xmlns="http://www.w3.org/2000/svg">
    <path d="M4.872 6.644c-.514.475-1.182.682-2.239.682h-.439V1.65h.44c1.056 0 1.698.193 2.238.694.566.516.906 1.315.906 2.138 0 .824-.34 1.647-.906 2.163zM2.962.194H.56V8.78h2.388c1.27 0 2.188-.307 2.993-.991a4.349 4.349 0 001.522-3.296c0-2.534-1.849-4.299-4.502-4.299zM8.216 8.78h1.636V.194H8.216V8.78zM13.852 3.489c-.982-.372-1.27-.617-1.27-1.081 0-.54.514-.952 1.219-.952.49 0 .893.206 1.32.695l.855-1.147a3.621 3.621 0 00-2.465-.952c-1.483 0-2.615 1.055-2.615 2.46 0 1.183.527 1.789 2.063 2.355.64.231.966.385 1.131.489.327.218.49.528.49.888 0 .696-.54 1.211-1.27 1.211-.78 0-1.408-.4-1.785-1.145l-1.057 1.042c.754 1.132 1.659 1.634 2.904 1.634 1.7 0 2.892-1.157 2.892-2.819 0-1.364-.551-1.981-2.412-2.678zM16.78 4.493c0 2.524 1.936 4.48 4.427 4.48.704 0 1.308-.141 2.051-.5V6.502c-.654.67-1.233.94-1.975.94-1.647 0-2.817-1.223-2.817-2.961 0-1.649 1.207-2.95 2.741-2.95.78 0 1.371.286 2.051.967V.528C22.54.154 21.95 0 21.246 0c-2.479 0-4.465 1.997-4.465 4.493zM36.23 5.961L33.992.194h-1.787L35.765 9h.88L40.268.194h-1.773l-2.266 5.767zM41.008 8.78h4.64V7.326h-3.005V5.01h2.894V3.554h-2.894V1.65h3.005V.194h-4.64V8.78zM48.843 4.147h-.478v-2.6h.504c1.019 0 1.572.436 1.572 1.272 0 .863-.553 1.328-1.598 1.328zm3.282-1.418c0-1.607-1.082-2.535-2.968-2.535H46.73V8.78h1.634V5.33h.213l2.265 3.45h2.011l-2.64-3.617c1.232-.257 1.91-1.12 1.91-2.434zM52.859.62h-.03V.423h.032c.087 0 .132.032.132.097 0 .066-.046.1-.134.1zm.31-.103c0-.15-.101-.233-.28-.233h-.236v.755h.176V.746l.207.293h.214l-.242-.311a.206.206 0 00.16-.211z" fill="#5B5B5B"/>
    <path d="M52.923 1.2a.526.526 0 01-.512-.54c0-.3.227-.54.512-.54.28 0 .509.246.509.54 0 .298-.229.54-.51.54zm.002-1.198a.647.647 0 00-.642.658c0 .365.288.658.642.658A.648.648 0 0053.56.66a.65.65 0 00-.635-.658zM32.313 4.702c0 2.362-1.87 4.277-4.178 4.277-2.307 0-4.178-1.915-4.178-4.277S25.827.425 28.135.425s4.178 1.915 4.178 4.277z" fill="#5B5B5B"/>
</svg>
