<svg width="49" height="29" fill="none" xmlns="http://www.w3.org/2000/svg">
    <path d="M47.51 22.313a.418.418 0 00-.176-.174.466.466 0 00-.23-.062.467.467 0 00-.23.062.469.469 0 10.463.813.472.472 0 00.173-.639zm-.245.406h-.102l-.062-.154h-.061v.154h-.082v-.392h.164c.02 0 .06.001.102.022.02.02.04.06.04.098 0 .043-.02.084-.06.102l.06.17z" fill="#5B5B5B"/>
    <path d="M47.143 22.407c0-.008-.041-.008-.062-.008h-.041v.101h.062s.02 0 .04-.008c.022-.009.022-.028.022-.046 0-.015 0-.03-.021-.039zM34.065 0a14.44 14.44 0 00-9.723 3.748A14.437 14.437 0 0014.624.003h-.093C6.573.055.13 6.53.13 14.498c0 8.002 6.494 14.494 14.494 14.494 3.738 0 7.145-1.418 9.717-3.745a14.336 14.336 0 01-1.482-1.584h2.994a14.498 14.498 0 01-1.472 1.552h-.003v.002c-.011.011-.024.02-.036.031a14.431 14.431 0 009.729 3.75c8.006-.003 14.49-6.495 14.489-14.499v-.007C48.558 6.488 42.067 0 34.065 0zM23.024 5.246h2.754c.408.491.785 1.01 1.125 1.552H21.99c.314-.519.662-1.05 1.034-1.552zm-1.892 3.075h6.605c.237.503.445 1.021.625 1.553h-8.013c.079-.15.359-.754.783-1.553zm-7.304 9.653h-1.72l1.024-5.37-2.355 5.37H9.22l-.287-5.334-1.024 5.334H6.353l1.332-6.982h2.683l.123 4.324 1.905-4.324h2.786l-1.354 6.982zm6.084-3.017l-.37 2.017-.06.361-.041.288-.021.194-.02.154h-1.433l.04-.587c-.428.468-1.023.685-1.801.685-.922 0-1.557-.633-1.557-1.549 0-1.382 1.106-2.19 3.01-2.19.184 0 .43.017.696.044.04-.187.062-.265.062-.369 0-.375-.308-.515-1.106-.515-.492 0-1.045.06-1.413.157l-.246.062-.143.037.225-1.279c.86-.218 1.413-.299 2.048-.299 1.474 0 2.253.577 2.253 1.665 0 .282-.02.493-.123 1.124zm3.422-2.802c1.412 0 2.314.803 2.314 2.062 0 .421-.062.828-.207 1.404h-3.398c-.021.087-.021.126-.021.18 0 .657.512.992 1.495.992.615 0 1.168-.11 1.782-.36l-.286 1.422a6.648 6.648 0 01-1.741.23c-1.925 0-2.93-.874-2.93-2.547 0-1.947 1.27-3.38 2.992-3.383zm3.587 10.017h-5.143c-.312-.5-.605-1.013-.856-1.552h6.843a14.514 14.514 0 01-.844 1.552zm3.15-8.573a11.555 11.555 0 00-1.25-.083c-.553 0-.84.156-.84.461 0 .266.083.33.8.618.879.345 1.229.802 1.229 1.581 0 1.296-.84 1.895-2.684 1.895-.224 0-.531-.017-.941-.047a4.309 4.309 0 01-.472-.052l-.307-.056-.082-.016.246-1.31a5.478 5.478 0 001.557.224c.676 0 .983-.158.983-.512 0-.26-.103-.344-.8-.627-.92-.37-1.33-.867-1.33-1.583 0-1.049.676-1.922 2.602-1.922.41 0 1.086.05 1.535.112l-.245 1.317zm2.686 3.104c.183 0 .326-.018.449-.055l-.225 1.26c-.471.13-.84.186-1.23.186-.88 0-1.351-.443-1.351-1.248 0-.16.02-.33.04-.51l.104-.559.08-.449.8-4.336h1.699l-.245 1.304h.88l-.246 1.382h-.881l-.45 2.37c-.021.102-.021.18-.021.233 0 .295.185.42.597.422zm4.189-2.809c-.82 0-1.084.61-1.7 4.083h-1.72l1.045-5.68h1.557l-.164.862c.533-.67.94-.923 1.495-.923.062 0 .124.006.185.014 0 .003.063.014.146.034.02.006.04.006.184.062l-.612 1.605-.205-.042a1.658 1.658 0 00-.211-.015zm3.039 4.232c-1.95 0-2.726-1.178-2.726-2.619 0-2.01 1.33-3.376 3.379-3.376 1.784 0 2.726 1.122 2.726 2.562 0 .353 0 .377-.041.707-.267 1.89-1.578 2.728-3.338 2.726zm3.522-.152a.45.45 0 01-.451-.445.45.45 0 01.45-.44.45.45 0 01.452.44.45.45 0 01-.451.445z" fill="#5B5B5B"/>
    <path d="M43.507 17.193a.348.348 0 00-.348.336c0 .19.164.34.348.34a.332.332 0 00.328-.34.33.33 0 00-.328-.336zm.163.534h-.103l-.062-.153h-.062v.153h-.082v-.393h.164c.022 0 .063.002.104.023.02.02.04.058.04.098a.109.109 0 01-.061.102l.062.17z" fill="#5B5B5B"/>
    <path d="M43.547 17.414c0-.009-.04-.009-.06-.009h-.043v.101h.062s.02 0 .04-.008c.022-.009.022-.028.022-.045 0-.015 0-.03-.021-.039zM23.313 13.456c-.553 0-.942.361-1.106 1.02l1.905.003v-.294c0-.46-.287-.729-.8-.729zM17.76 15.423c-.96 0-1.452.29-1.452.864 0 .353.226.58.614.58.697 0 1.188-.583 1.229-1.423a3.207 3.207 0 00-.39-.02zM40.598 13.521c-.881 0-1.413 1.035-1.413 1.947 0 .772.368 1.29.983 1.278.37 0 1.167-.509 1.31-1.392.04-.207.062-.434.062-.68 0-.593-.245-1.155-.942-1.153z" fill="#5B5B5B"/>
</svg>
