<?xml version="1.0" encoding="utf-8"?><svg xmlns="http://www.w3.org/2000/svg" xmlns:xlink="http://www.w3.org/1999/xlink"><symbol viewBox="0 0 18 18" id="accordeon-p" xmlns="http://www.w3.org/2000/svg"><path d="M18 8v2H0V8z"/><path d="M8 0h2v18H8z"/></symbol><symbol viewBox="0 0 14 8" id="arrow" xmlns="http://www.w3.org/2000/svg"><path d="M7 0a.62.62 0 01.45.195l6.363 6.667a.689.689 0 010 .943.616.616 0 01-.9 0L7 1.609 1.086 7.805a.616.616 0 01-.9 0 .689.689 0 010-.943L6.55.195A.62.62 0 017 0z"/></symbol><symbol viewBox="0 0 28 28" id="burger" xmlns="http://www.w3.org/2000/svg"><path d="M4 7a1 1 0 011-1h19a1 1 0 110 2H5a1 1 0 01-1-1zm0 7a1 1 0 011-1h11a1 1 0 110 2H5a1 1 0 01-1-1zm1 6a1 1 0 100 2h17a1 1 0 100-2H5z"/></symbol><symbol viewBox="0 0 22 24" id="cart" xmlns="http://www.w3.org/2000/svg"><path d="M18.924 6.331a.569.569 0 00-.569-.495h-3.134V4.698a4.699 4.699 0 00-9.397 0v1.138h-3.14a.569.569 0 00-.569.495L.005 22.338a.569.569 0 00.148.46c.239.256.5.518.785.774a.57.57 0 00.38.148h18.408a.57.57 0 00.381-.148c.279-.256.569-.518.785-.773a.568.568 0 00.148-.461L18.924 6.33zM6.978 4.687a3.56 3.56 0 117.122 0v1.138H6.961l.017-1.138zm12.515 17.895H1.54l-.376-.364L3.18 6.974h14.68l2.014 15.244-.381.364z"/></symbol><symbol viewBox="0 0 20 20" id="close" xmlns="http://www.w3.org/2000/svg"><path fill-rule="evenodd" clip-rule="evenodd" d="M.402 17.66a1.371 1.371 0 101.94 1.938L10 11.94l7.66 7.659a1.371 1.371 0 001.938-1.94L11.94 10l7.659-7.66a1.371 1.371 0 10-1.94-1.938L10 8.06 2.34.402a1.371 1.371 0 00-1.938 1.94L8.06 10 .402 17.66z"/></symbol><symbol viewBox="0 0 12 24" id="dollar" xmlns="http://www.w3.org/2000/svg"><path d="M11 9.23c.265 0 .52-.096.707-.27A.889.889 0 0012 8.308v-.763c-.003-1.237-.526-2.424-1.459-3.312C9.61 3.345 8.34 2.826 7 2.785V.923A.889.889 0 006.707.27 1.044 1.044 0 006 0c-.265 0-.52.097-.707.27A.889.889 0 005 .923v1.862A5.412 5.412 0 001.78 3.95C.885 4.667.284 5.648.079 6.727a4.454 4.454 0 00.577 3.146c.578.957 1.495 1.7 2.598 2.106l4.752 1.756A3.105 3.105 0 019.61 15.05c.354.597.47 1.29.331 1.958a2.896 2.896 0 01-1.095 1.705 3.339 3.339 0 01-2.02.67H5.173c-.842 0-1.648-.31-2.243-.858a2.824 2.824 0 01-.93-2.07v-.763a.889.889 0 00-.294-.652A1.044 1.044 0 001 14.77c-.265 0-.52.097-.707.27a.889.889 0 00-.293.652v.763c.003 1.237.526 2.424 1.459 3.312.932.888 2.202 1.407 3.541 1.448v1.862c0 .245.105.48.293.653.187.173.442.27.707.27.265 0 .52-.097.707-.27A.889.889 0 007 23.077v-1.863a5.413 5.413 0 003.22-1.163c.896-.718 1.497-1.699 1.702-2.778a4.454 4.454 0 00-.577-3.146c-.578-.957-1.495-1.7-2.598-2.106l-4.752-1.756A3.105 3.105 0 012.39 8.95a2.734 2.734 0 01-.331-1.959 2.895 2.895 0 011.095-1.705 3.34 3.34 0 012.02-.67h1.653c.842 0 1.648.31 2.243.858.595.55.93 1.294.93 2.071v.763c0 .245.106.48.294.652.187.174.442.27.707.27z"/></symbol><symbol viewBox="0 0 13 13" id="error" xmlns="http://www.w3.org/2000/svg"><path d="M6.5 0A6.5 6.5 0 1013 6.5 6.507 6.507 0 006.5 0zm2.507 8.172a.59.59 0 11-.836.835L6.5 7.336 4.829 9.007a.59.59 0 01-.836-.835L5.664 6.5l-1.67-1.672a.591.591 0 11.835-.835L6.5 5.664l1.671-1.671a.59.59 0 11.836.835L7.336 6.5l1.67 1.672z"/></symbol><symbol viewBox="0 0 16 20" id="euro" xmlns="http://www.w3.org/2000/svg"><path d="M15.383 17.71a7.92 7.92 0 01-3.33.727c-3.726 0-6.877-2.578-7.865-6.093h9.684V10.78h-9.97a8.756 8.756 0 010-1.562h9.97V7.656H4.188c.988-3.516 4.14-6.093 7.865-6.093 1.159 0 2.28.244 3.33.727L16 .863A9.388 9.388 0 0012.053 0C9.46 0 7.024 1.04 5.192 2.929a10.02 10.02 0 00-2.575 4.727H0V9.22h2.38a10.523 10.523 0 000 1.562H0v1.563h2.617a10.02 10.02 0 002.575 4.727C7.024 18.96 9.46 20 12.052 20c1.374 0 2.702-.29 3.948-.863l-.617-1.427z"/></symbol><symbol viewBox="0 0 17 19" id="exit" xmlns="http://www.w3.org/2000/svg"><path d="M8.81 17.911h4.784c1.3 0 2.355-1.097 2.355-2.44V3.529c0-1.347-1.059-2.44-2.355-2.44H8.733a.533.533 0 01-.526-.544c0-.302.234-.544.526-.544h4.861C15.474 0 17 1.585 17 3.528v11.944C17 17.419 15.47 19 13.594 19H8.811a.533.533 0 01-.526-.544c0-.303.238-.545.526-.545z"/><path d="M.154 9.117l3.34-3.46a.511.511 0 01.743 0 .557.557 0 010 .77L1.793 8.96h10.66c.293 0 .526.242.526.544a.533.533 0 01-.525.544H1.793l2.444 2.533a.557.557 0 010 .77.504.504 0 01-.74 0L.159 9.89a.558.558 0 01-.004-.774z"/></symbol><symbol viewBox="0 0 13 22" id="facebook" xmlns="http://www.w3.org/2000/svg"><path d="M8.439 22V11.966h3.831l.575-3.912H8.439V5.557c0-1.133.356-1.904 2.206-1.904L13 3.652V.153A36.489 36.489 0 009.567 0C6.17 0 3.843 1.823 3.843 5.17v2.884H0v3.912h3.843V22h4.596z"/></symbol><symbol viewBox="0 0 22 22" id="instagram" xmlns="http://www.w3.org/2000/svg"><path d="M16.5 0h-11C2.475 0 0 2.474 0 5.5v11C0 19.525 2.475 22 5.5 22h11c3.025 0 5.5-2.475 5.5-5.5v-11C22 2.474 19.525 0 16.5 0zM11 15.583a4.584 4.584 0 110-9.167 4.584 4.584 0 010 9.167zm5.958-9.166a1.375 1.375 0 110-2.75 1.375 1.375 0 010 2.75z"/></symbol><symbol viewBox="0 0 28 24" id="like" xmlns="http://www.w3.org/2000/svg"><path d="M14 24a1.68 1.68 0 01-1.082-.392 323.569 323.569 0 00-3.184-2.638l-.005-.004c-2.821-2.316-5.257-4.316-6.952-6.287C.882 12.478 0 10.39 0 8.108 0 5.891.789 3.846 2.221 2.35 3.671.834 5.66 0 7.822 0c1.616 0 3.096.492 4.4 1.463A8.824 8.824 0 0114 3.253c.525-.7 1.121-1.3 1.779-1.79A7.215 7.215 0 0120.179 0c2.162 0 4.15.834 5.6 2.349C27.211 3.846 28 5.89 28 8.107c0 2.282-.882 4.37-2.777 6.572-1.695 1.97-4.13 3.97-6.951 6.286-.964.791-2.056 1.688-3.19 2.643A1.68 1.68 0 0114 24zM7.822 1.58c-1.699 0-3.26.653-4.395 1.84C2.275 4.624 1.64 6.289 1.64 8.107c0 1.919.74 3.635 2.4 5.564 1.604 1.865 3.99 3.824 6.752 6.092l.006.004c.965.793 2.06 1.692 3.2 2.652a378.208 378.208 0 013.21-2.656c2.763-2.269 5.148-4.227 6.752-6.092 1.66-1.93 2.4-3.645 2.4-5.564 0-1.818-.635-3.483-1.787-4.687-1.135-1.187-2.696-1.84-4.395-1.84a5.573 5.573 0 00-3.396 1.133c-.9.67-1.525 1.517-1.893 2.11A1.035 1.035 0 0114 5.31c-.368 0-.7-.182-.89-.487-.366-.593-.993-1.44-1.892-2.11A5.573 5.573 0 007.822 1.58z"/></symbol><symbol viewBox="0 0 33 12" id="long-arrow" xmlns="http://www.w3.org/2000/svg"><path d="M32.802 5.523L25.145.198a.678.678 0 00-.957 0 .673.673 0 000 .954l6.5 4.173H.678a.676.676 0 100 1.35h30.01l-6.5 4.173A.673.673 0 0024.667 12a.676.676 0 00.478-.198l7.657-5.325a.673.673 0 000-.954z"/></symbol><symbol viewBox="0 0 18 22" id="pinterest" xmlns="http://www.w3.org/2000/svg"><path d="M9.301 0C3.23 0 0 3.864 0 8.077c0 1.954 1.1 4.39 2.86 5.164.267.12.412.068.472-.178.052-.187.284-1.088.396-1.513a.387.387 0 00-.094-.382c-.585-.67-1.049-1.893-1.049-3.04 0-2.939 2.353-5.792 6.356-5.792 3.462 0 5.884 2.233 5.884 5.428 0 3.61-1.923 6.106-4.423 6.106-1.383 0-2.414-1.078-2.087-2.412.395-1.588 1.169-3.296 1.169-4.441 0-1.027-.584-1.877-1.778-1.877-1.408 0-2.55 1.385-2.55 3.244 0 1.18.42 1.979.42 1.979l-1.652 6.631c-.437 1.767.06 4.629.103 4.875.026.136.18.179.266.067.137-.178 1.82-2.564 2.293-4.288.171-.629.876-3.177.876-3.177.464.832 1.803 1.53 3.23 1.53C14.933 16 18 12.296 18 7.7 17.985 3.297 14.188 0 9.301 0z"/></symbol><symbol viewBox="0 0 24 24" id="search" xmlns="http://www.w3.org/2000/svg"><path d="M23.773 22.694l-6.197-6.097c1.623-1.763 2.62-4.095 2.62-6.66C20.196 4.449 15.674 0 10.098 0 4.52 0 0 4.449 0 9.937c0 5.488 4.52 9.937 10.098 9.937 2.41 0 4.62-.834 6.355-2.22l6.22 6.122a.785.785 0 001.1 0 .757.757 0 000-1.082zm-13.675-4.35c-4.72 0-8.544-3.764-8.544-8.407 0-4.644 3.825-8.408 8.544-8.408 4.718 0 8.543 3.764 8.543 8.408 0 4.643-3.825 8.408-8.543 8.408z"/></symbol><symbol viewBox="0 0 13 7" id="select" xmlns="http://www.w3.org/2000/svg"><path d="M12.917.502A.298.298 0 0012.91.09a.276.276 0 00-.392 0L6.5 6.296.486.09a.276.276 0 00-.4-.007.298.298 0 000 .42l6.216 6.412c.11.114.29.114.4 0L12.916.502z"/><path d="M.003.295c0-.16.126-.291.282-.292.075 0 .148.031.2.086l6.016 6.207L12.517.09a.277.277 0 01.4 0 .3.3 0 010 .413L6.701 6.915a.276.276 0 01-.4 0L.087.502A.296.296 0 01.003.295z"/></symbol><symbol viewBox="0 0 19 22" id="tiktok" xmlns="http://www.w3.org/2000/svg"><path d="M18.99 5.508a5.389 5.389 0 01-3.293-1.119A5.569 5.569 0 0113.521 0H9.99l-.004 15.192c0 1.437-.92 2.656-2.196 3.085a3.16 3.16 0 01-2.648-.297 3.261 3.261 0 01-1.562-2.74c-.027-1.816 1.417-3.298 3.202-3.298.353 0 .691.058 1.008.165V8.459a6.833 6.833 0 00-1.018-.076 6.72 6.72 0 00-5.088 2.315 6.799 6.799 0 00-1.671 4.065 6.794 6.794 0 002.608 5.81A6.697 6.697 0 006.771 22a6.707 6.707 0 004.788-1.994 6.784 6.784 0 001.984-4.786l-.018-8.029c.607.477 1.27.87 1.983 1.177A8.795 8.795 0 0019 9.084V5.508h-.01z"/></symbol><symbol viewBox="0 0 28 22" id="twitter" xmlns="http://www.w3.org/2000/svg"><path d="M28 2.604a12.29 12.29 0 01-3.308.877c1.19-.687 2.099-1.767 2.526-3.068a11.712 11.712 0 01-3.64 1.344A5.845 5.845 0 0019.385 0c-3.178 0-5.737 2.494-5.737 5.552 0 .44.039.864.133 1.266C9.01 6.593 4.786 4.381 1.95 1.012a5.449 5.449 0 00-.785 2.806c0 1.922 1.024 3.626 2.55 4.613a5.818 5.818 0 01-2.594-.684v.061c0 2.698 1.99 4.938 4.599 5.455a5.911 5.911 0 01-1.505.182 5.24 5.24 0 01-1.087-.094c.744 2.198 2.854 3.814 5.364 3.867a11.786 11.786 0 01-7.117 2.367c-.471 0-.923-.02-1.374-.076C2.543 21.095 5.556 22 8.806 22c10.563 0 16.338-8.461 16.338-15.796 0-.245-.009-.482-.021-.718A11.251 11.251 0 0028 2.604z"/></symbol></svg>